{
.appVersion = "3223";
.formatVersion = 3;
DisplayStrings = (
"ABCDEFGHIJKLMNOPQRSTUVWXYZ
HHAHH HHAOO 
HHBHH OOBOO HHBOO HHBBHH OOBHH
HHKHH OOKOO HHKOO HHKKHH OOKHH
HHMHH OOMOO HHMOO HHMMHH OOMHH
HHRHH OOROO HHROO HHRRHH OORHH
HHNHH OONOO HHNOO HHNNHH OONHH",
abcdefghijklmnopqrstuvwxyz
);
axes = (
{
name = Weight;
tag = wght;
}
);
customParameters = (
{
name = blueScale;
value = 0.04;
},
{
name = blueShift;
value = 7;
},
{
name = blueFuzz;
value = 1;
},
{
name = TTFBlueFuzz;
value = 1;
},
{
name = fsType;
value = (
);
}
);
date = "2023-10-18 15:40:09 +0000";
familyName = "Festac 23";
featurePrefixes = (
{
automatic = 1;
code = "languagesystem DFLT dflt;

languagesystem latn dflt;
";
name = Languagesystems;
}
);
features = (
{
automatic = 1;
code = "feature ss01;
";
tag = aalt;
},
{
automatic = 1;
code = "lookup ccmp_latn_1 {
	sub fi by f i;
} ccmp_latn_1;

script latn;
lookup ccmp_latn_1;
";
tag = ccmp;
},
{
automatic = 1;
code = "lookupflag IgnoreMarks;
sub f f by f_f.liga;
sub t t by t_t.liga;
sub f i by fi;
";
tag = liga;
},
{
automatic = 1;
code = "sub t by t.ss01;
";
labels = (
{
language = dflt;
value = alt.t;
}
);
tag = ss01;
}
);
fontMaster = (
{
axesValues = (
173
);
customParameters = (
{
name = blueScale;
value = 0.04;
},
{
name = blueShift;
value = 7;
},
{
name = blueFuzz;
value = 1;
},
{
name = TTFBlueFuzz;
value = 1;
}
);
guides = (
{
locked = 1;
pos = (927,385);
}
);
iconName = SemiBold;
id = m01;
metricValues = (
{
over = 12;
pos = 574;
},
{
over = 12;
pos = 554;
},
{
over = 12;
pos = 400;
},
{
over = -12;
},
{
over = -12;
pos = -270;
}
);
name = Bold;
stemValues = (
120,
173
);
userData = {
GSExtrudeAngle = 30;
GSExtrudeOffset = 15;
};
}
);
glyphs = (
{
color = 3;
glyphname = A;
lastChange = "2023-10-19 19:01:55 +0000";
layers = (
{
anchors = (
{
name = bottom;
pos = (270,0);
},
{
name = ogonek;
pos = (503,0);
},
{
name = top;
pos = (270,554);
}
);
layerId = m01;
shapes = (
{
closed = 1;
nodes = (
(503,0,l),
(503,277,ls),
(503,391,o),
(487,496,o),
(443,554,c),
(247,554,l),
(301,483,o),
(324,382,o),
(324,277,cs),
(324,0,l)
);
},
{
closed = 1;
nodes = (
(215,0,l),
(215,277,ls),
(215,382,o),
(239,488,o),
(292,554,c),
(86,554,l),
(49,493,o),
(36,392,o),
(36,277,cs),
(36,0,l)
);
},
{
closed = 1;
nodes = (
(471,234,l),
(471,354,l),
(60,354,l),
(60,234,l)
);
}
);
width = 539;
}
);
unicode = 65;
},
{
color = 4;
glyphname = B;
lastChange = "2023-10-19 18:45:02 +0000";
layers = (
{
anchors = (
{
name = bottom;
pos = (242,0);
},
{
name = center;
pos = (242,277);
},
{
name = top;
pos = (242,554);
}
);
layerId = m01;
shapes = (
{
closed = 1;
nodes = (
(203,1,l),
(203,555,l),
(24,555,l),
(24,1,l)
);
},
{
closed = 1;
nodes = (
(365,1,l),
(400,17,o),
(464,57,o),
(464,168,cs),
(464,240,o),
(412,284,o),
(361,318,c),
(361,318,o),
(361,318,o),
(361,318,cs),
(359,318,o),
(182,318,o),
(183,317,cs),
(246,254,o),
(270,228,o),
(270,160,cs),
(270,57,o),
(223,28,o),
(186,1,c)
);
},
{
closed = 1;
nodes = (
(361,318,l),
(366,322,o),
(435,356,o),
(435,436,cs),
(435,513,o),
(377,545,o),
(363,555,c),
(184,555,l),
(211,539,o),
(265,533,o),
(265,435,cs),
(265,330,o),
(186,317,o),
(182,317,c)
);
}
);
width = 484;
}
);
unicode = 66;
},
{
color = 3;
glyphname = C;
lastChange = "2023-10-20 14:54:27 +0000";
layers = (
{
anchors = (
{
name = bottom;
pos = (267,0);
},
{
name = top;
pos = (267,554);
}
);
layerId = m01;
shapes = (
{
closed = 1;
nodes = (
(292,0,l),
(238,71,o),
(207,172,o),
(207,277,cs),
(207,382,o),
(239,488,o),
(292,554,c),
(86,554,l),
(49,493,o),
(28,392,o),
(28,277,cs),
(28,163,o),
(52,58,o),
(96,0,c)
);
},
{
closed = 1;
nodes = (
(453,0,l),
(479,43,o),
(498,107,o),
(506,182,c),
(323,182,l),
(311,111,o),
(284,46,o),
(247,0,c)
);
},
{
closed = 1;
nodes = (
(505,372,l),
(495,448,o),
(474,513,o),
(443,554,c),
(247,554,l),
(284,505,o),
(311,442,o),
(323,372,c)
);
}
);
width = 534;
}
);
unicode = 67;
},
{
color = 3;
glyphname = D;
lastChange = "2023-10-19 18:44:53 +0000";
layers = (
{
anchors = (
{
name = bottom;
pos = (269,0);
},
{
name = center;
pos = (269,277);
},
{
name = top;
pos = (269,554);
}
);
layerId = m01;
shapes = (
{
closed = 1;
nodes = (
(420,0,l),
(474,63,o),
(506,167,o),
(506,277,cs),
(506,388,o),
(474,490,o),
(420,554,c),
(189,554,l),
(272,493,o),
(332,377,o),
(332,277,cs),
(332,175,o),
(278,70,o),
(189,0,c)
);
},
{
closed = 1;
nodes = (
(211,0,l),
(211,554,l),
(38,554,l),
(38,0,l)
);
}
);
width = 538;
}
);
unicode = 68;
},
{
color = 4;
glyphname = E;
lastChange = "2023-10-25 15:39:36 +0000";
layers = (
{
anchors = (
{
name = bottom;
pos = (238,0);
},
{
name = ogonek;
pos = (426,0);
},
{
name = top;
pos = (238,554);
},
{
name = topleft;
pos = (22,554);
}
);
background = {
shapes = (
{
closed = 1;
nodes = (
(502,0,l),
(502,554,l),
(329,554,l),
(329,0,l)
);
},
{
closed = 1;
nodes = (
(213,0,l),
(213,554,l),
(40,554,l),
(40,0,l)
);
},
{
closed = 1;
nodes = (
(473,234,l),
(473,354,l),
(62,354,l),
(62,234,l)
);
},
{
ref = F;
}
);
};
layerId = m01;
shapes = (
{
closed = 1;
nodes = (
(379,0,l),
(379,120,l),
(210,120,l),
(210,224,l),
(348,224,l),
(348,340,l),
(210,340,l),
(210,436,l),
(376,436,l),
(376,554,l),
(40,554,l),
(40,0,l)
);
}
);
width = 410;
}
);
metricLeft = H;
metricRight = O;
unicode = 69;
},
{
color = 4;
glyphname = F;
lastChange = "2023-10-25 15:39:36 +0000";
layers = (
{
anchors = (
{
name = bottom;
pos = (176,0);
},
{
name = ogonek;
pos = (426,0);
},
{
name = top;
pos = (176,554);
},
{
name = topleft;
pos = (22,554);
}
);
background = {
shapes = (
{
ref = E;
}
);
};
layerId = m01;
shapes = (
{
closed = 1;
nodes = (
(211,0,l),
(211,193,l),
(348,193,l),
(348,311,l),
(210,311,l),
(210,435,l),
(376,435,l),
(376,554,l),
(40,554,l),
(40,0,l)
);
}
);
width = 388;
}
);
unicode = 70;
},
{
color = 3;
glyphname = G;
lastChange = "2023-10-19 18:44:53 +0000";
layers = (
{
anchors = (
{
name = bottom;
pos = (270,0);
},
{
name = top;
pos = (270,554);
}
);
layerId = m01;
shapes = (
{
closed = 1;
nodes = (
(292,0,l),
(238,71,o),
(207,172,o),
(207,277,cs),
(207,382,o),
(239,488,o),
(292,554,c),
(86,554,l),
(49,493,o),
(28,392,o),
(28,277,cs),
(28,163,o),
(52,58,o),
(96,0,c)
);
},
{
closed = 1;
nodes = (
(453,0,l),
(490,60,o),
(511,160,o),
(511,273,c),
(332,273,l),
(331,170,o),
(299,65,o),
(247,0,c)
);
},
{
closed = 1;
nodes = (
(451,210,l),
(511,273,l),
(511,330,l),
(275,330,l),
(275,210,l)
);
},
{
closed = 1;
nodes = (
(501,401,l),
(490,464,o),
(470,518,o),
(443,554,c),
(247,554,l),
(279,512,o),
(303,459,o),
(317,401,c)
);
}
);
width = 539;
}
);
unicode = 71;
},
{
color = 4;
glyphname = H;
lastChange = "2023-10-25 15:19:47 +0000";
layers = (
{
anchors = (
{
name = bottom;
pos = (271,0);
},
{
name = center;
pos = (271,277);
},
{
name = top;
pos = (271,554);
},
{
name = topleft;
pos = (22,554);
}
);
layerId = m01;
shapes = (
{
closed = 1;
nodes = (
(502,0,l),
(502,554,l),
(329,554,l),
(329,0,l)
);
},
{
closed = 1;
nodes = (
(213,0,l),
(213,554,l),
(40,554,l),
(40,0,l)
);
},
{
closed = 1;
nodes = (
(473,234,l),
(473,354,l),
(62,354,l),
(62,234,l)
);
}
);
width = 542;
}
);
unicode = 72;
},
{
color = 3;
glyphname = I;
lastChange = "2023-10-19 19:03:53 +0000";
layers = (
{
anchors = (
{
name = bottom;
pos = (111,0);
},
{
name = ogonek;
pos = (182,0);
},
{
name = top;
pos = (111,554);
},
{
name = topleft;
pos = (20,554);
}
);
layerId = m01;
shapes = (
{
closed = 1;
nodes = (
(197,0,l),
(197,554,l),
(24,554,l),
(24,0,l)
);
}
);
width = 221;
}
);
unicode = 73;
},
{
color = 3;
glyphname = J;
lastChange = "2023-10-19 18:44:53 +0000";
layers = (
{
anchors = (
{
name = bottom;
pos = (246,0);
},
{
name = top;
pos = (246,554);
}
);
layerId = m01;
shapes = (
{
closed = 1;
nodes = (
(431,0,l),
(450,30,o),
(467,99,o),
(467,147,cs),
(467,554,l),
(294,554,l),
(294,208,ls),
(294,138,o),
(281,61,o),
(239,0,c)
);
},
{
closed = 1;
nodes = (
(282,0,l),
(222,45,o),
(198,123,o),
(198,200,cs),
(198,225,l),
(25,225,l),
(25,200,ls),
(25,118,o),
(42,42,o),
(78,0,c)
);
}
);
width = 492;
}
);
unicode = 74;
},
{
color = 3;
glyphname = K;
lastChange = "2023-10-19 18:44:53 +0000";
layers = (
{
anchors = (
{
name = bottom;
pos = (251,0);
},
{
name = top;
pos = (251,554);
}
);
layerId = m01;
shapes = (
{
closed = 1;
nodes = (
(203,0,l),
(203,554,l),
(24,554,l),
(24,0,l)
);
},
{
closed = 1;
nodes = (
(472,0,l),
(472,147,o),
(468,248,o),
(377,313,c),
(377,313,o),
(377,315,o),
(377,315,cs),
(375,315,o),
(180,314,o),
(181,313,cs),
(292,202,o),
(270,147,o),
(270,0,c)
);
},
{
closed = 1;
nodes = (
(377,315,l),
(382,319,o),
(435,355,o),
(435,435,cs),
(435,462,o),
(434,522,o),
(434,554,c),
(255,554,l),
(256,528,o),
(256,462,o),
(256,434,cs),
(256,351,o),
(185,313,o),
(181,313,c)
);
}
);
width = 502;
}
);
unicode = 75;
},
{
color = 4;
glyphname = L;
lastChange = "2023-10-25 15:39:36 +0000";
layers = (
{
anchors = (
{
name = bottom;
pos = (205,0);
},
{
name = center;
pos = (205,277);
},
{
name = top;
pos = (205,554);
},
{
name = topright;
pos = (390,554);
}
);
background = {
shapes = (
{
ref = E;
}
);
};
layerId = m01;
shapes = (
{
closed = 1;
nodes = (
(367,0,l),
(367,120,l),
(210,120,l),
(210,554,l),
(40,554,l),
(40,0,l)
);
}
);
width = 373;
}
);
metricLeft = H;
unicode = 76;
},
{
color = 3;
glyphname = M;
lastChange = "2023-10-19 18:44:53 +0000";
layers = (
{
anchors = (
{
name = bottom;
pos = (342,0);
},
{
name = top;
pos = (342,554);
}
);
background = {
shapes = (
{
closed = 1;
nodes = (
(197,0,l),
(197,554,l),
(24,554,l),
(24,0,l)
);
},
{
closed = 1;
nodes = (
(428,0,l),
(428,354,l),
(428,494,o),
(381,554,o),
(381,554,c),
(170,554,l),
(170,554,o),
(255,484,o),
(255,354,c),
(255,0,l)
);
},
{
closed = 1;
nodes = (
(659,0,l),
(659,354,l),
(659,494,o),
(588,554,o),
(588,554,c),
(363,554,l),
(363,554,o),
(486,484,o),
(486,354,c),
(486,0,l)
);
}
);
};
layerId = m01;
shapes = (
{
closed = 1;
nodes = (
(659,0,l),
(659,354,ls),
(659,438,o),
(635,506,o),
(588,554,c),
(363,554,l),
(442,503,o),
(486,431,o),
(486,354,cs),
(486,0,l)
);
},
{
closed = 1;
nodes = (
(197,0,l),
(197,554,l),
(24,554,l),
(24,0,l)
);
},
{
closed = 1;
nodes = (
(428,0,l),
(428,354,ls),
(428,436,o),
(410,511,o),
(381,554,c),
(170,554,l),
(224,504,o),
(255,431,o),
(255,354,cs),
(255,0,l)
);
}
);
width = 683;
}
);
unicode = 77;
},
{
color = 3;
glyphname = N;
lastChange = "2023-10-19 18:44:53 +0000";
layers = (
{
anchors = (
{
name = bottom;
pos = (246,0);
},
{
name = top;
pos = (246,554);
}
);
layerId = m01;
shapes = (
{
closed = 1;
nodes = (
(456,0,l),
(456,277,ls),
(456,391,o),
(440,496,o),
(396,554,c),
(200,554,l),
(254,483,o),
(277,382,o),
(277,277,cs),
(277,0,l)
);
},
{
closed = 1;
nodes = (
(215,0,l),
(215,554,l),
(36,554,l),
(36,0,l)
);
}
);
width = 492;
}
);
unicode = 78;
},
{
color = 4;
glyphname = O;
lastChange = "2023-10-24 15:41:39 +0000";
layers = (
{
anchors = (
{
name = bottom;
pos = (276,0);
},
{
name = center;
pos = (276,277);
},
{
name = oconnect;
pos = (200,0);
},
{
name = ogonek;
pos = (457,0);
},
{
name = top;
pos = (276,554);
},
{
name = topleft;
pos = (26,554);
},
{
name = topright;
pos = (525,554);
}
);
background = {
shapes = (
{
pos = (6,0);
ref = H;
}
);
};
layerId = m01;
shapes = (
{
closed = 1;
nodes = (
(458,0,l),
(498,61,o),
(520,162,o),
(520,277,cs),
(520,391,o),
(495,496,o),
(450,554,c),
(253,554,l),
(308,483,o),
(340,382,o),
(340,277,cs),
(340,172,o),
(307,66,o),
(253,0,c)
);
},
{
closed = 1;
nodes = (
(298,0,l),
(243,71,o),
(211,172,o),
(211,277,cs),
(211,382,o),
(244,488,o),
(298,554,c),
(93,554,l),
(53,493,o),
(31,392,o),
(31,277,cs),
(31,163,o),
(56,58,o),
(101,0,c)
);
}
);
width = 551;
}
);
unicode = 79;
},
{
color = 4;
glyphname = P;
lastChange = "2023-10-19 18:45:02 +0000";
layers = (
{
anchors = (
{
name = bottom;
pos = (258,0);
},
{
name = top;
pos = (258,554);
}
);
background = {
shapes = (
{
closed = 1;
nodes = (
(221,0,l),
(221,554,l),
(48,554,l),
(48,0,l)
);
},
{
closed = 1;
nodes = (
(410,154,l),
(410,154,o),
(468,214,o),
(468,354,cs),
(468,494,o),
(410,554,o),
(410,554,c),
(196,554,l),
(196,554,o),
(295,484,o),
(295,354,cs),
(295,224,o),
(196,154,o),
(196,154,c)
);
}
);
};
layerId = m01;
shapes = (
{
closed = 1;
nodes = (
(410,154,l),
(445,193,o),
(468,272,o),
(468,354,cs),
(468,437,o),
(445,514,o),
(410,554,c),
(196,554,l),
(257,508,o),
(295,431,o),
(295,354,cs),
(295,277,o),
(257,200,o),
(196,154,c)
);
},
{
closed = 1;
nodes = (
(221,0,l),
(221,554,l),
(48,554,l),
(48,0,l)
);
}
);
width = 516;
}
);
unicode = 80;
},
{
color = 3;
glyphname = Thorn;
lastChange = "2023-10-24 15:47:01 +0000";
layers = (
{
anchors = (
{
name = bottom;
pos = (292,0);
},
{
name = top;
pos = (292,554);
}
);
layerId = m01;
shapes = (
{
closed = 1;
nodes = (
(402,113,l),
(437,146,o),
(460,214,o),
(460,284,cs),
(460,355,o),
(437,421,o),
(402,455,c),
(188,455,l),
(249,416,o),
(287,350,o),
(287,284,cs),
(287,218,o),
(249,152,o),
(188,113,c)
);
},
{
closed = 1;
nodes = (
(213,0,l),
(213,554,l),
(40,554,l),
(40,0,l)
);
}
);
width = 508;
}
);
metricLeft = H;
metricRight = P;
unicode = 222;
},
{
color = 3;
glyphname = Q;
lastChange = "2023-10-19 18:44:53 +0000";
layers = (
{
anchors = (
{
name = bottom;
pos = (270,0);
},
{
name = jot;
pos = (270,-412);
},
{
name = leg;
pos = (210,-412);
},
{
name = top;
pos = (270,554);
}
);
layerId = m01;
shapes = (
{
closed = 1;
nodes = (
(453,0,l),
(490,61,o),
(511,162,o),
(511,277,cs),
(511,391,o),
(487,496,o),
(443,554,c),
(247,554,l),
(301,483,o),
(332,382,o),
(332,277,cs),
(332,172,o),
(300,66,o),
(247,0,c)
);
},
{
closed = 1;
nodes = (
(416,-127,l),
(378,-99,o),
(361,-70,o),
(361,-31,cs),
(361,0,l),
(182,0,l),
(182,-31,ls),
(182,-69,o),
(198,-97,o),
(237,-127,c)
);
},
{
closed = 1;
nodes = (
(292,0,l),
(238,71,o),
(207,172,o),
(207,277,cs),
(207,382,o),
(239,488,o),
(292,554,c),
(86,554,l),
(49,493,o),
(28,392,o),
(28,277,cs),
(28,163,o),
(52,58,o),
(96,0,c)
);
}
);
width = 539;
}
);
unicode = 81;
},
{
color = 4;
glyphname = R;
lastChange = "2023-10-19 18:45:02 +0000";
layers = (
{
anchors = (
{
name = bottom;
pos = (250,0);
},
{
name = top;
pos = (250,554);
}
);
layerId = m01;
shapes = (
{
closed = 1;
nodes = (
(203,0,l),
(203,554,l),
(24,554,l),
(24,0,l)
);
},
{
closed = 1;
nodes = (
(472,0,l),
(472,147,o),
(468,248,o),
(377,313,c),
(377,313,o),
(377,315,o),
(377,315,cs),
(375,315,o),
(180,314,o),
(181,313,cs),
(292,202,o),
(270,147,o),
(270,0,c)
);
},
{
closed = 1;
nodes = (
(377,315,l),
(382,319,o),
(435,355,o),
(435,435,cs),
(435,512,o),
(392,544,o),
(378,554,c),
(177,554,l),
(204,538,o),
(265,507,o),
(265,434,cs),
(265,351,o),
(185,313,o),
(181,313,c)
);
}
);
width = 499;
}
);
unicode = 82;
},
{
color = 3;
glyphname = S;
lastChange = "2023-10-19 18:44:53 +0000";
layers = (
{
anchors = (
{
name = bottom;
pos = (155,0);
},
{
name = top;
pos = (155,554);
}
);
layerId = m01;
shapes = (
{
closed = 1;
nodes = (
(234,0,l),
(269,46,o),
(290,108,o),
(290,166,cs),
(290,209,o),
(281,234,o),
(249,302,cs),
(229,349,o),
(222,379,o),
(222,415,cs),
(222,448,o),
(245,508,o),
(277,554,c),
(75,554,l),
(42,509,o),
(20,442,o),
(20,388,cs),
(20,352,o),
(27,320,o),
(45,281,cs),
(82,199,o),
(88,180,o),
(88,138,cs),
(88,114,o),
(59,40,o),
(32,0,c)
);
}
);
width = 310;
}
);
unicode = 83;
},
{
color = 3;
glyphname = T;
lastChange = "2023-10-19 18:44:53 +0000";
layers = (
{
anchors = (
{
name = bottom;
pos = (227,0);
},
{
name = center;
pos = (227,277);
},
{
name = top;
pos = (227,554);
}
);
layerId = m01;
shapes = (
{
closed = 1;
nodes = (
(314,0,l),
(314,554,l),
(141,554,l),
(141,0,l)
);
},
{
closed = 1;
nodes = (
(448,434,l),
(448,554,l),
(6,554,l),
(6,434,l)
);
}
);
width = 454;
}
);
unicode = 84;
},
{
color = 3;
glyphname = U;
lastChange = "2023-10-19 19:15:50 +0000";
layers = (
{
anchors = (
{
name = bottom;
pos = (331,0);
},
{
name = ogonek;
pos = (510,0);
},
{
name = top;
pos = (279,554);
},
{
name = topright;
pos = (538,554);
}
);
layerId = m01;
shapes = (
{
closed = 1;
nodes = (
(356,0,l),
(277,58,o),
(227,166,o),
(227,277,cs),
(227,554,l),
(48,554,l),
(48,277,ls),
(48,136,o),
(77,63,o),
(160,0,c)
);
},
{
closed = 1;
nodes = (
(510,0,l),
(510,554,l),
(331,554,l),
(331,0,l)
);
}
);
width = 558;
}
);
unicode = 85;
},
{
color = 3;
glyphname = V;
lastChange = "2023-10-19 18:44:53 +0000";
layers = (
{
anchors = (
{
name = bottom;
pos = (270,0);
},
{
name = top;
pos = (270,554);
}
);
layerId = m01;
shapes = (
{
closed = 1;
nodes = (
(433,0,l),
(477,58,o),
(489,163,o),
(493,277,cs),
(503,554,l),
(324,554,l),
(314,277,ls),
(310,172,o),
(291,71,o),
(237,0,c)
);
},
{
closed = 1;
nodes = (
(292,0,l),
(239,66,o),
(219,172,o),
(215,277,cs),
(205,554,l),
(26,554,l),
(36,277,ls),
(40,162,o),
(49,61,o),
(86,0,c)
);
}
);
width = 529;
}
);
unicode = 86;
},
{
color = 3;
glyphname = W;
lastChange = "2023-10-19 18:44:53 +0000";
layers = (
{
anchors = (
{
name = bottom;
pos = (375,0);
},
{
name = jot;
pos = (151,0);
},
{
name = leg;
pos = (404,0);
},
{
name = top;
pos = (375,554);
}
);
background = {
shapes = (
{
closed = 1;
nodes = (
(474,0,l),
(518,58,o),
(530,163,o),
(534,277,cs),
(544,554,l),
(365,554,l),
(355,277,ls),
(351,172,o),
(332,71,o),
(278,0,c)
);
},
{
closed = 1;
nodes = (
(333,0,l),
(280,66,o),
(260,172,o),
(256,277,cs),
(246,554,l),
(67,554,l),
(77,277,ls),
(81,162,o),
(90,61,o),
(127,0,c)
);
}
);
};
layerId = m01;
shapes = (
{
closed = 1;
nodes = (
(629,0,l),
(629,0,o),
(675,60,o),
(700,200,c),
(732,554,l),
(559,554,l),
(559,554,o),
(554,343,o),
(527,200,cs),
(502,69,o),
(404,0,o),
(404,0,c)
);
},
{
closed = 1;
nodes = (
(238,0,l),
(191,554,l),
(18,554,l),
(65,0,l)
);
},
{
closed = 1;
nodes = (
(422,0,l),
(422,0,o),
(471,60,o),
(469,200,cs),
(465,554,l),
(292,554,l),
(292,554,o),
(296,330,o),
(296,200,cs),
(296,70,o),
(211,0,o),
(211,0,c)
);
}
);
width = 750;
}
);
unicode = 87;
},
{
color = 3;
glyphname = X;
lastChange = "2023-10-19 18:44:53 +0000";
layers = (
{
anchors = (
{
name = bottom;
pos = (259,0);
},
{
name = top;
pos = (259,554);
}
);
background = {
shapes = (
{
closed = 0;
nodes = (
(197,175,ls),
(197,283,o),
(277,332,o),
(277,332,c)
);
},
{
closed = 1;
nodes = (
(197,0,l),
(197,0,o),
(197,84,o),
(197,175,cs),
(197,283,o),
(277,332,o),
(277,332,c),
(84,332,ls),
(84,332,o),
(24,290,o),
(24,175,c),
(24,0,l)
);
},
{
closed = 1;
nodes = (
(257,332,l),
(199,554,l),
(26,554,l),
(84,332,l)
);
},
{
closed = 0;
nodes = (
(228,332,l),
(228,332,o),
(308,283,o),
(308,175,cs)
);
},
{
closed = 1;
nodes = (
(481,175,l),
(481,290,o),
(421,332,o),
(421,332,cs),
(228,332,l),
(228,332,o),
(308,283,o),
(308,175,cs),
(308,84,o),
(308,0,o),
(308,0,c),
(481,0,l)
);
},
{
closed = 1;
nodes = (
(494,554,l),
(321,554,l),
(248,332,l),
(421,332,l)
);
}
);
};
layerId = m01;
shapes = (
{
closed = 1;
nodes = (
(197,0,l),
(197,175,ls),
(197,249,o),
(238,317,o),
(295,336,c),
(212,338,l),
(268,314,o),
(308,246,o),
(308,175,cs),
(308,0,l),
(481,0,l),
(481,175,ls),
(481,267,o),
(441,338,o),
(384,348,c),
(397,258,l),
(494,554,l),
(321,554,l),
(252,345,l),
(254,345,l),
(199,554,l),
(26,554,l),
(104,257,l),
(122,352,l),
(61,334,o),
(24,267,o),
(24,175,cs),
(24,0,l)
);
}
);
width = 518;
}
);
unicode = 88;
},
{
color = 3;
glyphname = Y;
lastChange = "2023-10-19 18:44:53 +0000";
layers = (
{
anchors = (
{
name = bottom;
pos = (259,0);
},
{
name = top;
pos = (259,554);
},
{
name = topleft;
pos = (20,554);
}
);
layerId = m01;
shapes = (
{
closed = 1;
nodes = (
(427,257,l),
(462,314,o),
(471,370,o),
(487,484,cs),
(497,554,l),
(318,554,l),
(308,484,ls),
(293,379,o),
(285,328,o),
(231,257,c)
);
},
{
closed = 1;
nodes = (
(345,0,l),
(346,257,l),
(161,257,l),
(160,0,l)
);
},
{
closed = 1;
nodes = (
(286,257,l),
(233,323,o),
(224,379,o),
(209,484,cs),
(199,554,l),
(20,554,l),
(30,484,ls),
(46,371,o),
(43,328,o),
(80,257,c)
);
}
);
width = 517;
}
);
unicode = 89;
},
{
color = 3;
glyphname = Z;
lastChange = "2023-10-19 18:44:53 +0000";
layers = (
{
anchors = (
{
name = bottom;
pos = (244,0);
},
{
name = center;
pos = (244,277);
},
{
name = top;
pos = (244,554);
}
);
layerId = m01;
shapes = (
{
closed = 1;
nodes = (
(207,118,l),
(207,172,o),
(244,194,o),
(303,257,cs),
(330,286,o),
(458,376,o),
(458,439,c),
(279,439,l),
(279,402,o),
(160,328,o),
(119,282,cs),
(80,239,o),
(24,172,o),
(24,118,c)
);
},
{
closed = 1;
nodes = (
(463,0,l),
(463,120,l),
(24,120,l),
(24,0,l)
);
},
{
closed = 1;
nodes = (
(458,434,l),
(458,554,l),
(46,554,l),
(46,434,l)
);
}
);
width = 487;
}
);
unicode = 90;
},
{
color = 9;
glyphname = A.ss01;
lastChange = "2023-10-25 15:39:18 +0000";
layers = (
{
anchors = (
{
name = bottom;
pos = (270,0);
},
{
name = oconnect;
pos = (194,0);
},
{
name = ogonek;
pos = (485,10);
},
{
name = top;
pos = (270,554);
}
);
layerId = m01;
shapes = (
{
closed = 1;
nodes = (
(483,0,l),
(504,101,o),
(511,173,o),
(511,277,cs),
(511,392,o),
(490,493,o),
(453,554,c),
(255,554,l),
(304,493,o),
(332,392,o),
(332,277,cs),
(332,155,o),
(324,99,o),
(293,0,c)
);
},
{
closed = 1;
nodes = (
(246,0,l),
(215,99,o),
(207,155,o),
(207,277,cs),
(207,392,o),
(235,493,o),
(284,554,c),
(86,554,l),
(49,493,o),
(28,392,o),
(28,277,cs),
(28,173,o),
(35,101,o),
(56,0,c)
);
},
{
closed = 1;
nodes = (
(471,234,l),
(471,354,l),
(60,354,l),
(60,234,l)
);
}
);
width = 539;
}
);
},
{
color = 9;
glyphname = E.ss01;
lastChange = "2023-10-25 15:39:18 +0000";
layers = (
{
anchors = (
{
name = bottom;
pos = (267,0);
},
{
name = top;
pos = (267,554);
}
);
layerId = m01;
shapes = (
{
closed = 1;
nodes = (
(292,0,l),
(238,71,o),
(207,172,o),
(207,277,cs),
(207,382,o),
(203,488,o),
(232,554,c),
(56,554,l),
(32,493,o),
(28,392,o),
(28,277,cs),
(28,163,o),
(52,58,o),
(96,0,c)
);
},
{
closed = 1;
nodes = (
(443,0,l),
(469,43,o),
(488,107,o),
(496,182,c),
(313,182,l),
(301,111,o),
(274,46,o),
(237,0,c)
);
},
{
closed = 1;
nodes = (
(372,220,l),
(372,335,l),
(109,335,l),
(109,220,l)
);
},
{
closed = 1;
nodes = (
(475,372,l),
(460,448,o),
(429,513,o),
(382,554,c),
(187,554,l),
(238,505,o),
(276,442,o),
(293,372,c)
);
}
);
width = 534;
}
);
},
{
color = 9;
glyphname = F.ss01;
lastChange = "2023-10-25 15:39:18 +0000";
layers = (
{
anchors = (
{
name = bottom;
pos = (176,0);
},
{
name = top;
pos = (176,554);
}
);
background = {
shapes = (
{
pos = (-10,0);
ref = O;
}
);
};
layerId = m01;
shapes = (
{
closed = 1;
nodes = (
(197,0,l),
(197,360,ls),
(197,459,o),
(219,521,o),
(255,554,c),
(72,554,l),
(35,512,o),
(24,433,o),
(24,320,cs),
(24,0,l)
);
},
{
closed = 1;
nodes = (
(327,190,l),
(327,310,l),
(109,310,l),
(109,190,l)
);
},
{
closed = 1;
nodes = (
(455,412,l),
(450,466,o),
(432,520,o),
(401,554,c),
(205,554,l),
(242,513,o),
(266,461,o),
(273,412,c)
);
}
);
width = 467;
}
);
},
{
color = 9;
glyphname = M.ss01;
lastChange = "2023-10-25 15:39:18 +0000";
layers = (
{
anchors = (
{
name = bottom;
pos = (342,0);
},
{
name = top;
pos = (342,554);
}
);
layerId = m01;
shapes = (
{
closed = 1;
nodes = (
(659,0,l),
(659,291,ls),
(659,396,o),
(635,506,o),
(588,554,c),
(363,554,l),
(442,503,o),
(486,389,o),
(486,291,cs),
(486,0,l)
);
},
{
closed = 1;
nodes = (
(197,0,l),
(197,554,l),
(24,554,l),
(24,0,l)
);
},
{
closed = 1;
nodes = (
(428,0,l),
(428,291,ls),
(428,394,o),
(410,511,o),
(381,554,c),
(170,554,l),
(224,504,o),
(255,389,o),
(255,291,cs),
(255,0,l)
);
}
);
width = 683;
}
);
},
{
color = 9;
glyphname = N.ss01;
lastChange = "2023-10-25 15:39:18 +0000";
layers = (
{
anchors = (
{
name = bottom;
pos = (365,0);
},
{
name = top;
pos = (365,554);
}
);
layerId = m01;
shapes = (
{
closed = 1;
nodes = (
(327,0,o),
(523,0,o),
(523,0,cs),
(473,112,o),
(456,188,o),
(456,279,cs),
(456,409,o),
(430,496,o),
(386,554,c),
(190,554,l),
(244,483,o),
(279,387,o),
(279,279,cs),
(279,196,o),
(286,102,o),
(327,0,cs)
);
},
{
closed = 1;
nodes = (
(218,0,l),
(218,554,l),
(39,554,l),
(39,0,l)
);
},
{
closed = 1;
nodes = (
(691,0,l),
(691,554,l),
(506,554,l),
(506,0,l)
);
}
);
width = 730;
}
);
},
{
color = 9;
glyphname = Q.ss01;
lastChange = "2023-10-25 15:39:18 +0000";
layers = (
{
anchors = (
{
name = bottom;
pos = (300,0);
},
{
name = top;
pos = (300,554);
}
);
layerId = m01;
shapes = (
{
closed = 1;
nodes = (
(453,0,l),
(490,61,o),
(511,162,o),
(511,277,cs),
(511,391,o),
(487,496,o),
(443,554,c),
(247,554,l),
(301,483,o),
(332,382,o),
(332,277,cs),
(332,172,o),
(300,66,o),
(247,0,c)
);
},
{
closed = 1;
nodes = (
(507,-127,l),
(468,-103,o),
(453,-76,o),
(453,-31,cs),
(453,0,l),
(280,0,l),
(280,-31,ls),
(280,-76,o),
(299,-110,o),
(334,-127,c)
);
},
{
closed = 1;
nodes = (
(292,0,l),
(238,71,o),
(207,172,o),
(207,277,cs),
(207,382,o),
(239,488,o),
(292,554,c),
(86,554,l),
(49,493,o),
(28,392,o),
(28,277,cs),
(28,163,o),
(52,58,o),
(96,0,c)
);
}
);
width = 600;
}
);
},
{
color = 9;
glyphname = R.ss01;
lastChange = "2023-10-25 15:39:18 +0000";
layers = (
{
anchors = (
{
name = bottom;
pos = (250,0);
},
{
name = top;
pos = (250,554);
}
);
layerId = m01;
shapes = (
{
closed = 1;
nodes = (
(203,0,l),
(203,554,l),
(24,554,l),
(24,0,l)
);
},
{
closed = 1;
nodes = (
(472,0,l),
(378,315,l),
(197,314,l),
(274,0,l)
);
},
{
closed = 1;
nodes = (
(377,315,l),
(382,319,o),
(435,355,o),
(435,435,cs),
(435,512,o),
(392,544,o),
(378,554,c),
(177,554,l),
(204,538,o),
(265,507,o),
(265,434,cs),
(265,351,o),
(192,315,o),
(185,314,c)
);
}
);
width = 499;
}
);
},
{
color = 9;
glyphname = S.ss01;
lastChange = "2023-10-25 15:39:18 +0000";
layers = (
{
anchors = (
{
name = bottom;
pos = (254,0);
},
{
name = top;
pos = (254,554);
}
);
background = {
shapes = (
{
closed = 1;
nodes = (
(440,0,l),
(460,31,o),
(470,67,o),
(470,103,cs),
(470,125,o),
(466,146,o),
(459,167,cs),
(442,218,o),
(414,259,o),
(370,296,cs),
(258,389,o),
(243,405,o),
(234,440,cs),
(232,447,o),
(232,454,o),
(232,461,cs),
(232,488,o),
(245,515,o),
(277,554,c),
(71,554,l),
(50,519,o),
(39,484,o),
(39,451,cs),
(39,443,o),
(40,434,o),
(41,426,cs),
(50,375,o),
(79,330,o),
(132,285,cs),
(207,221,o),
(252,190,o),
(274,153,cs),
(281,141,o),
(284,127,o),
(284,112,cs),
(284,77,o),
(268,35,o),
(240,0,c)
);
},
{
closed = 1;
nodes = (
(285,0,l),
(245,29,o),
(223,84,o),
(223,150,cs),
(223,159,o),
(223,168,o),
(224,177,c),
(40,177,l),
(38,166,o),
(38,154,o),
(38,143,cs),
(38,81,o),
(61,26,o),
(99,0,c)
);
},
{
closed = 1;
nodes = (
(465,386,l),
(467,397,o),
(468,409,o),
(468,422,cs),
(468,468,o),
(453,519,o),
(427,554,c),
(241,554,l),
(274,511,o),
(293,456,o),
(293,411,cs),
(293,402,o),
(292,394,o),
(291,386,c)
);
}
);
};
layerId = m01;
shapes = (
{
closed = 1;
nodes = (
(440,0,l),
(460,30,o),
(470,66,o),
(470,120,cs),
(470,168,o),
(432,244,o),
(346,315,cs),
(264,383,o),
(232,418,o),
(232,451,cs),
(232,487,o),
(244,513,o),
(277,554,c),
(71,554,l),
(51,521,o),
(39,486,o),
(39,462,cs),
(39,381,o),
(70,333,o),
(180,244,cs),
(267,173,o),
(284,152,o),
(284,112,cs),
(284,76,o),
(268,34,o),
(240,0,c)
);
},
{
closed = 1;
nodes = (
(285,0,l),
(247,28,o),
(223,81,o),
(223,138,cs),
(223,164,o),
(223,169,o),
(224,177,c),
(40,177,l),
(38,168,o),
(38,160,o),
(38,134,cs),
(38,79,o),
(62,25,o),
(99,0,c)
);
},
{
closed = 1;
nodes = (
(465,386,l),
(467,398,o),
(468,411,o),
(468,432,cs),
(468,471,o),
(451,522,o),
(427,554,c),
(241,554,l),
(271,515,o),
(293,459,o),
(293,422,cs),
(293,407,o),
(293,398,o),
(291,386,c)
);
}
);
width = 508;
}
);
},
{
color = 9;
glyphname = V.ss01;
lastChange = "2023-10-25 15:39:18 +0000";
layers = (
{
anchors = (
{
name = bottom;
pos = (270,0);
},
{
name = top;
pos = (270,554);
}
);
layerId = m01;
shapes = (
{
closed = 1;
nodes = (
(453,0,l),
(490,61,o),
(503,162,o),
(503,277,cs),
(503,554,l),
(324,554,l),
(324,277,ls),
(324,172,o),
(300,66,o),
(247,0,c)
);
},
{
closed = 1;
nodes = (
(292,0,l),
(238,71,o),
(215,172,o),
(215,277,cs),
(215,554,l),
(36,554,l),
(36,277,ls),
(36,163,o),
(52,58,o),
(96,0,c)
);
}
);
width = 539;
}
);
},
{
color = 9;
glyphname = A.ss02;
lastChange = "2023-10-25 15:39:18 +0000";
layers = (
{
anchors = (
{
name = bottom;
pos = (273,0);
},
{
name = ogonek;
pos = (491,10);
},
{
name = top;
pos = (273,554);
}
);
layerId = m01;
shapes = (
{
closed = 1;
nodes = (
(510,0,l),
(500,277,ls),
(496,391,o),
(484,496,o),
(440,554,c),
(244,554,l),
(298,483,o),
(317,382,o),
(321,277,cs),
(331,0,l)
);
},
{
closed = 1;
nodes = (
(212,0,l),
(212,277,ls),
(212,382,o),
(236,488,o),
(289,554,c),
(86,554,l),
(49,493,o),
(36,392,o),
(36,277,cs),
(36,0,l)
);
},
{
closed = 1;
nodes = (
(468,229,l),
(468,349,l),
(57,349,l),
(57,229,l)
);
}
);
width = 546;
}
);
metricLeft = A;
metricRight = A;
},
{
color = 9;
glyphname = F.ss02;
lastChange = "2023-10-25 15:39:18 +0000";
layers = (
{
layerId = m01;
shapes = (
{
closed = 1;
nodes = (
(197,0,l),
(197,360,ls),
(197,459,o),
(231,521,o),
(267,554,c),
(84,554,l),
(47,519,o),
(24,454,o),
(24,360,cs),
(24,0,l)
);
},
{
closed = 1;
nodes = (
(327,190,l),
(327,310,l),
(109,310,l),
(109,190,l)
);
},
{
closed = 1;
nodes = (
(442,384,l),
(402,554,l),
(229,554,l),
(269,384,l)
);
}
);
width = 442;
}
);
},
{
color = 9;
glyphname = N.ss02;
lastChange = "2023-10-25 15:39:18 +0000";
layers = (
{
anchors = (
{
name = bottom;
pos = (329,0);
},
{
name = top;
pos = (329,554);
}
);
layerId = m01;
shapes = (
{
closed = 1;
nodes = (
(314,0,o),
(466,0,o),
(466,0,cs),
(416,112,o),
(399,188,o),
(399,279,cs),
(399,409,o),
(373,496,o),
(329,554,c),
(177,554,l),
(231,483,o),
(266,387,o),
(266,279,cs),
(266,196,o),
(273,102,o),
(314,0,cs)
);
},
{
closed = 1;
nodes = (
(205,0,l),
(205,554,l),
(26,554,l),
(26,0,l)
);
},
{
closed = 1;
nodes = (
(631,0,l),
(631,554,l),
(446,554,l),
(446,0,l)
);
}
);
width = 657;
}
);
},
{
color = 9;
glyphname = X.ss02;
lastChange = "2023-10-25 15:39:18 +0000";
layers = (
{
anchors = (
{
name = bottom;
pos = (279,0);
},
{
name = top;
pos = (279,554);
}
);
layerId = m01;
shapes = (
{
closed = 1;
nodes = (
(512,0,l),
(512,131,ls),
(512,216,o),
(473,285,o),
(406,317,c),
(184,317,l),
(290,246,o),
(333,175,o),
(333,106,cs),
(333,0,l)
);
},
{
closed = 1;
nodes = (
(203,0,l),
(316,317,l),
(137,317,l),
(24,0,l)
);
},
{
closed = 1;
nodes = (
(359,317,l),
(305,346,o),
(258,388,o),
(242,434,cs),
(230,472,o),
(228,521,o),
(237,554,c),
(58,554,l),
(52,500,o),
(58,455,o),
(70,420,cs),
(82,383,o),
(101,354,o),
(137,317,c)
);
},
{
closed = 1;
nodes = (
(406,317,l),
(484,554,l),
(305,554,l),
(228,317,l)
);
}
);
width = 557;
}
);
},
{
color = 9;
glyphname = F.ss10;
lastChange = "2023-10-25 15:39:18 +0000";
layers = (
{
anchors = (
{
name = bottom;
pos = (176,0);
},
{
name = connector;
pos = (24,400);
},
{
name = top;
pos = (176,554);
}
);
annotations = (
{
pos = (265.636,182.411);
text = "This is for setting the wordmark";
type = Text;
}
);
layerId = m01;
shapes = (
{
closed = 1;
nodes = (
(197,0,l),
(197,400,l),
(197,400,o),
(197,560,o),
(327,630,c),
(154,630,l),
(24,560,o),
(24,450,o),
(24,400,c),
(24,0,l)
);
},
{
closed = 1;
nodes = (
(327,280,l),
(327,400,l),
(24,400,l),
(24,280,l)
);
}
);
width = 351;
}
);
},
{
color = 3;
glyphname = a;
kernLeft = a;
lastChange = "2023-10-19 19:02:28 +0000";
layers = (
{
anchors = (
{
name = bottom;
pos = (225,0);
},
{
name = ogonek;
pos = (426,0);
},
{
name = top;
pos = (225,400);
}
);
layerId = m01;
shapes = (
{
closed = 1;
nodes = (
(426,0,l),
(426,253,ls),
(426,301,o),
(409,370,o),
(390,400,c),
(183,400,l),
(227,337,o),
(253,258,o),
(253,192,cs),
(253,0,l)
);
},
{
closed = 1;
nodes = (
(290,0,l),
(230,27,o),
(193,77,o),
(193,130,cs),
(193,183,o),
(220,238,o),
(266,280,c),
(64,280,l),
(34,227,o),
(20,177,o),
(20,129,cs),
(20,80,o),
(44,30,o),
(76,0,c)
);
}
);
width = 450;
}
);
unicode = 97;
},
{
color = 0;
glyphname = ae;
lastChange = "2023-10-19 18:16:02 +0000";
layers = (
{
anchors = (
{
name = bottom;
pos = (450,0);
},
{
name = top;
pos = (450,400);
}
);
layerId = m01;
shapes = (
{
closed = 1;
nodes = (
(717,0,l),
(673,59,o),
(647,133,o),
(647,196,cs),
(647,400,l),
(474,400,l),
(474,167,ls),
(474,99,o),
(491,30,o),
(510,0,c)
);
},
{
closed = 1;
nodes = (
(290,0,l),
(230,27,o),
(193,77,o),
(193,130,cs),
(193,183,o),
(220,238,o),
(266,280,c),
(64,280,l),
(34,227,o),
(20,177,o),
(20,129,cs),
(20,80,o),
(44,30,o),
(76,0,c)
);
},
{
closed = 1;
nodes = (
(426,0,l),
(426,253,ls),
(426,301,o),
(409,370,o),
(390,400,c),
(183,400,l),
(227,337,o),
(253,258,o),
(253,192,cs),
(253,0,l)
);
},
{
closed = 1;
nodes = (
(836,120,l),
(862,163,o),
(880,222,o),
(880,267,cs),
(880,316,o),
(859,367,o),
(824,400,c),
(610,400,l),
(671,373,o),
(707,322,o),
(707,267,cs),
(707,218,o),
(678,157,o),
(634,120,c)
);
}
);
width = 900;
}
);
unicode = 230;
},
{
color = 3;
glyphname = b;
lastChange = "2023-10-19 18:45:08 +0000";
layers = (
{
anchors = (
{
name = bottom;
pos = (226,0);
},
{
name = center;
pos = (226,200);
},
{
name = top;
pos = (226,554);
}
);
background = {
shapes = (
{
closed = 1;
nodes = (
(197,0,l),
(197,554,l),
(24,554,l),
(24,0,l)
);
},
{
closed = 1;
nodes = (
(374,0,l),
(374,0,o),
(432,60,o),
(432,200,cs),
(432,340,o),
(374,400,o),
(374,400,c),
(160,400,l),
(160,400,o),
(259,330,o),
(259,200,cs),
(259,70,o),
(160,0,o),
(160,0,c)
);
}
);
};
guides = (
{
}
);
layerId = m01;
shapes = (
{
closed = 1;
nodes = (
(374,0,l),
(410,42,o),
(432,117,o),
(432,200,cs),
(432,283,o),
(410,359,o),
(374,400,c),
(160,400,l),
(220,355,o),
(259,277,o),
(259,200,cs),
(259,123,o),
(220,44,o),
(160,0,c)
);
},
{
closed = 1;
nodes = (
(197,0,l),
(197,554,l),
(24,554,l),
(24,0,l)
);
}
);
width = 452;
}
);
unicode = 98;
},
{
color = 3;
glyphname = c;
kernLeft = a;
lastChange = "2023-10-24 14:53:38 +0000";
layers = (
{
anchors = (
{
name = bottom;
pos = (165,0);
},
{
name = top;
pos = (165,400);
}
);
layerId = m01;
shapes = (
{
closed = 1;
nodes = (
(304,0,l),
(242,49,o),
(205,123,o),
(205,200,cs),
(205,278,o),
(241,350,o),
(304,400,c),
(90,400,l),
(52,355,o),
(32,284,o),
(32,200,cs),
(32,117,o),
(55,40,o),
(90,0,c)
);
}
);
width = 316;
}
);
metricLeft = o;
unicode = 99;
},
{
color = 3;
glyphname = d;
kernLeft = a;
lastChange = "2023-10-24 14:57:20 +0000";
layers = (
{
anchors = (
{
name = bottom;
pos = (242,0);
},
{
name = center;
pos = (242,200);
},
{
name = top;
pos = (242,574);
},
{
name = topright;
pos = (452,574);
}
);
layerId = m01;
shapes = (
{
closed = 1;
nodes = (
(304,0,l),
(241,49,o),
(205,123,o),
(205,200,cs),
(205,276,o),
(243,353,o),
(304,400,c),
(90,400,l),
(53,356,o),
(32,284,o),
(32,200,cs),
(32,118,o),
(54,42,o),
(90,0,c)
);
},
{
closed = 1;
nodes = (
(448,0,l),
(448,574,l),
(275,574,l),
(275,0,l)
);
}
);
width = 472;
}
);
metricLeft = c;
unicode = 100;
},
{
color = 3;
glyphname = e;
lastChange = "2023-10-19 19:02:33 +0000";
layers = (
{
anchors = (
{
name = bottom;
pos = (225,0);
},
{
name = ogonek;
pos = (267,0);
},
{
name = top;
pos = (225,400);
}
);
background = {
shapes = (
{
closed = 1;
nodes = (
(24,400,l),
(24,147,ls),
(24,91,o),
(44,25,o),
(60,0,c),
(267,0,l),
(251,24,o),
(197,108,o),
(197,208,cs),
(197,400,l)
);
},
{
closed = 1;
nodes = (
(160,400,l),
(160,400,o),
(257,360,o),
(257,270,cs),
(257,180,o),
(184,120,o),
(184,120,c),
(386,120,l),
(386,120,o),
(430,190,o),
(430,270,cs),
(430,350,o),
(374,400,o),
(374,400,c)
);
}
);
};
layerId = m01;
shapes = (
{
closed = 1;
nodes = (
(267,0,l),
(223,59,o),
(197,133,o),
(197,196,cs),
(197,400,l),
(24,400,l),
(24,167,ls),
(24,99,o),
(41,30,o),
(60,0,c)
);
},
{
closed = 1;
nodes = (
(386,120,l),
(412,163,o),
(430,222,o),
(430,267,cs),
(430,316,o),
(409,367,o),
(374,400,c),
(160,400,l),
(221,373,o),
(257,322,o),
(257,267,cs),
(257,218,o),
(228,157,o),
(184,120,c)
);
}
);
width = 450;
}
);
metricLeft = b;
metricRight = b;
unicode = 101;
},
{
color = 3;
glyphname = f;
kernLeft = f;
kernRight = f;
lastChange = "2023-10-19 18:45:08 +0000";
layers = (
{
anchors = (
{
name = bottom;
pos = (145,0);
},
{
name = top;
pos = (145,574);
}
);
layerId = m01;
shapes = (
{
closed = 1;
nodes = (
(201,0,l),
(201,420,ls),
(201,462,o),
(206,526,o),
(258,574,c),
(98,574,l),
(37,535,o),
(24,475,o),
(24,427,cs),
(24,0,l)
);
},
{
closed = 1;
nodes = (
(266,280,l),
(266,400,l),
(24,400,l),
(24,280,l)
);
}
);
width = 290;
}
);
unicode = 102;
},
{
color = 2;
glyphname = g;
kernLeft = a;
lastChange = "2023-10-24 14:57:20 +0000";
layers = (
{
anchors = (
{
name = bottom;
pos = (244,-270);
},
{
name = top;
pos = (244,400);
}
);
guides = (
{
pos = (462,-210);
}
);
layerId = m01;
shapes = (
{
closed = 1;
nodes = (
(415,-154,l),
(434,-124,o),
(451,-55,o),
(451,-7,cs),
(451,400,l),
(278,400,l),
(278,54,ls),
(278,-16,o),
(250,-93,o),
(208,-154,c)
);
},
{
closed = 1;
nodes = (
(304,0,l),
(243,47,o),
(205,123,o),
(205,200,cs),
(205,276,o),
(242,351,o),
(304,400,c),
(90,400,l),
(53,354,o),
(32,281,o),
(32,200,cs),
(32,119,o),
(56,36,o),
(90,0,c)
);
}
);
width = 475;
}
);
metricLeft = d;
metricRight = d;
unicode = 103;
},
{
color = 4;
glyphname = h;
lastChange = "2023-10-24 14:53:14 +0000";
layers = (
{
anchors = (
{
name = bottom;
pos = (237,0);
},
{
name = center;
pos = (237,574);
},
{
name = top;
pos = (237,574);
}
);
layerId = m01;
shapes = (
{
closed = 1;
nodes = (
(450,0,l),
(450,200,ls),
(450,282,o),
(428,358,o),
(392,400,c),
(178,400,l),
(238,355,o),
(277,277,o),
(277,200,cs),
(277,0,l)
);
},
{
closed = 1;
nodes = (
(197,0,l),
(197,574,l),
(24,574,l),
(24,0,l)
);
}
);
width = 486;
}
);
metricLeft = b;
metricRight = n;
unicode = 104;
},
{
color = 3;
glyphname = i;
lastChange = "2023-10-19 18:45:08 +0000";
layers = (
{
anchors = (
{
name = bottom;
pos = (111,0);
}
);
guides = (
{
pos = (-4,0);
}
);
layerId = m01;
shapes = (
{
closed = 1;
nodes = (
(197,0,l),
(197,400,l),
(24,400,l),
(24,0,l)
);
},
{
closed = 1;
nodes = (
(197,434,l),
(197,500,l),
(24,500,l),
(24,434,l)
);
}
);
width = 221;
}
);
unicode = 105;
},
{
color = 3;
glyphname = idotless;
lastChange = "2023-10-19 18:54:44 +0000";
layers = (
{
anchors = (
{
name = bottom;
pos = (111,0);
},
{
name = ogonek;
pos = (197,0);
},
{
name = top;
pos = (111,400);
}
);
layerId = m01;
shapes = (
{
closed = 1;
nodes = (
(197,0,l),
(197,400,l),
(24,400,l),
(24,0,l)
);
}
);
width = 221;
}
);
unicode = 305;
},
{
color = 3;
glyphname = j;
lastChange = "2023-10-19 18:45:08 +0000";
layers = (
{
guides = (
{
pos = (-246,440);
}
);
layerId = m01;
shapes = (
{
closed = 1;
nodes = (
(197,-154,l),
(197,400,l),
(24,400,l),
(24,-154,l)
);
},
{
alignment = -1;
pos = (-5,0);
ref = _part.tittle;
}
);
width = 222;
}
);
unicode = 106;
},
{
color = 3;
glyphname = l;
kernLeft = l;
kernRight = l;
lastChange = "2023-10-19 18:45:08 +0000";
layers = (
{
anchors = (
{
name = bottom;
pos = (134,0);
},
{
name = center;
pos = (134,574);
},
{
name = top;
pos = (134,574);
},
{
name = topright;
pos = (247,574);
}
);
layerId = m01;
shapes = (
{
closed = 1;
nodes = (
(267,0,l),
(251,24,o),
(197,108,o),
(197,208,cs),
(197,574,l),
(24,574,l),
(25,147,ls),
(25,91,o),
(44,25,o),
(60,0,c)
);
}
);
width = 267;
}
);
unicode = 108;
},
{
color = 0;
glyphname = m;
lastChange = "2023-10-24 15:03:12 +0000";
layers = (
{
anchors = (
{
name = bottom;
pos = (356,0);
},
{
name = top;
pos = (356,400);
}
);
background = {
shapes = (
{
closed = 1;
nodes = (
(215,0,l),
(215,400,l),
(42,400,l),
(42,0,l)
);
},
{
closed = 1;
nodes = (
(446,0,l),
(446,200,ls),
(446,340,o),
(399,400,o),
(399,400,c),
(188,400,l),
(188,400,o),
(273,330,o),
(273,200,cs),
(273,70,o),
(273,0,o),
(273,0,c)
);
},
{
closed = 1;
nodes = (
(677,0,l),
(677,200,ls),
(677,340,o),
(606,400,o),
(606,400,c),
(381,400,l),
(381,400,o),
(504,330,o),
(504,200,cs),
(504,70,o),
(504,0,o),
(504,0,c)
);
}
);
};
layerId = m01;
shapes = (
{
closed = 1;
nodes = (
(442,0,l),
(442,207,ls),
(442,297,o),
(429,354,o),
(400,400,c),
(205,400,l),
(253,344,o),
(276,285,o),
(276,213,cs),
(276,0,l)
);
},
{
closed = 1;
nodes = (
(215,0,l),
(215,400,l),
(42,400,l),
(42,0,l)
);
},
{
closed = 1;
nodes = (
(677,0,l),
(677,207,ls),
(677,297,o),
(658,354,o),
(616,400,c),
(421,400,l),
(477,344,o),
(504,285,o),
(504,213,cs),
(504,0,l)
);
}
);
width = 713;
}
);
metricLeft = n;
metricRight = n;
unicode = 109;
},
{
color = 4;
glyphname = n;
lastChange = "2023-10-24 14:46:30 +0000";
layers = (
{
anchors = (
{
name = bottom;
pos = (251,0);
},
{
name = jot;
pos = (128,400);
},
{
name = leg;
pos = (188,400);
},
{
name = top;
pos = (251,400);
}
);
layerId = m01;
shapes = (
{
closed = 1;
nodes = (
(466,0,l),
(466,200,ls),
(466,282,o),
(444,358,o),
(408,400,c),
(194,400,l),
(257,362,o),
(293,293,o),
(293,209,cs),
(293,0,l)
);
},
{
closed = 1;
nodes = (
(215,0,l),
(215,400,l),
(42,400,l),
(42,0,l)
);
}
);
width = 502;
}
);
unicode = 110;
},
{
color = 5;
glyphname = o;
kernLeft = k;
lastChange = "2023-10-24 14:52:33 +0000";
layers = (
{
anchors = (
{
name = bottom;
pos = (256,0);
},
{
name = center;
pos = (256,200);
},
{
name = ogonek;
pos = (437,0);
},
{
name = top;
pos = (254,400);
},
{
name = topright;
pos = (436,400);
}
);
background = {
shapes = (
{
closed = 1;
nodes = (
(442,0,l),
(466,46,o),
(480,119,o),
(480,200,cs),
(480,282,o),
(465,359,o),
(442,400,c),
(238,400,l),
(273,359,o),
(307,291,o),
(307,200,cs),
(307,105,o),
(266,29,o),
(238,0,c)
);
},
{
closed = 1;
nodes = (
(274,0,l),
(230,51,o),
(205,124,o),
(205,200,cs),
(205,276,o),
(231,352,o),
(274,400,c),
(70,400,l),
(46,356,o),
(32,283,o),
(32,200,cs),
(32,118,o),
(46,42,o),
(70,0,c)
);
}
);
};
guides = (
{
angle = 90.6321;
pos = (255,199);
}
);
layerId = m01;
shapes = (
{
closed = 1;
nodes = (
(437,0,l),
(463,44,o),
(478,117,o),
(478,200,cs),
(478,285,o),
(463,361,o),
(436,400,c),
(234,400,l),
(279,350,o),
(305,276,o),
(305,200,cs),
(305,123,o),
(280,48,o),
(238,0,c)
);
},
{
closed = 1;
nodes = (
(276,0,l),
(231,50,o),
(205,124,o),
(205,200,cs),
(205,277,o),
(230,352,o),
(272,400,c),
(73,400,l),
(47,356,o),
(32,283,o),
(32,200,cs),
(32,115,o),
(47,39,o),
(74,0,c)
);
}
);
width = 510;
}
);
unicode = 111;
},
{
color = 3;
glyphname = s;
lastChange = "2023-10-19 18:45:08 +0000";
layers = (
{
anchors = (
{
name = bottom;
pos = (141,0);
},
{
name = top;
pos = (141,400);
}
);
background = {
shapes = (
{
closed = 1;
nodes = (
(221,0,l),
(221,0,o),
(261,50,o),
(261,120,cs),
(261,197,o),
(208,233,o),
(212,300,cs),
(214,338,o),
(252,400,o),
(252,400,c),
(60,400,l),
(60,400,o),
(20,350,o),
(20,280,cs),
(20,203,o),
(73,167,o),
(69,100,cs),
(67,62,o),
(29,0,o),
(29,0,c)
);
}
);
};
layerId = m01;
shapes = (
{
closed = 1;
nodes = (
(221,0,l),
(246,33,o),
(261,78,o),
(261,120,cs),
(261,197,o),
(212,221,o),
(212,300,cs),
(212,324,o),
(229,367,o),
(252,400,c),
(60,400,l),
(37,369,o),
(20,320,o),
(20,280,cs),
(20,202,o),
(69,174,o),
(69,100,cs),
(69,82,o),
(48,29,o),
(29,0,c)
);
}
);
width = 281;
}
);
unicode = 115;
},
{
color = 3;
glyphname = t;
lastChange = "2023-10-24 14:55:58 +0000";
layers = (
{
anchors = (
{
name = bottom;
pos = (149,0);
},
{
name = center;
pos = (149,200);
},
{
name = crossbar;
pos = (149,400);
},
{
name = top;
pos = (149,400);
},
{
name = topright;
pos = (304,574);
}
);
background = {
shapes = (
{
closed = 1;
nodes = (
(308,0,l),
(261,65,o),
(238,156,o),
(238,280,cs),
(238,500,l),
(65,500,l),
(65,200,ls),
(65,118,o),
(81,28,o),
(101,0,c)
);
},
{
closed = 1;
nodes = (
(303,280,l),
(303,400,l),
(0,400,l),
(0,280,l)
);
}
);
};
layerId = m01;
shapes = (
{
closed = 1;
nodes = (
(305,0,l),
(259,59,o),
(235,154,o),
(235,270,cs),
(235,280,l),
(314,280,l),
(314,400,l),
(235,400,l),
(235,500,l),
(62,500,l),
(62,400,l),
(11,400,l),
(11,280,l),
(62,280,l),
(62,200,ls),
(62,117,o),
(78,29,o),
(98,0,c)
);
}
);
width = 327;
}
);
unicode = 116;
},
{
color = 3;
glyphname = u;
kernLeft = u;
lastChange = "2023-10-19 19:02:54 +0000";
layers = (
{
anchors = (
{
name = bottom;
pos = (245,0);
},
{
name = jot;
pos = (368,0);
},
{
name = leg;
pos = (308,0);
},
{
name = ogonek;
pos = (454,0);
},
{
name = top;
pos = (245,400);
},
{
name = topright;
pos = (470,400);
}
);
layerId = m01;
shapes = (
{
closed = 1;
nodes = (
(296,0,l),
(236,45,o),
(197,123,o),
(197,200,cs),
(197,400,l),
(24,400,l),
(24,200,ls),
(24,118,o),
(46,42,o),
(82,0,c)
);
},
{
closed = 1;
nodes = (
(454,0,l),
(454,400,l),
(281,400,l),
(281,0,l)
);
}
);
width = 490;
}
);
metricLeft = b;
metricRight = n;
unicode = 117;
},
{
color = 3;
glyphname = x;
lastChange = "2023-10-19 18:45:08 +0000";
layers = (
{
anchors = (
{
name = bottom;
pos = (253,0);
},
{
name = top;
pos = (253,400);
}
);
background = {
shapes = (
{
closed = 1;
nodes = (
(197,0,l),
(197,0,o),
(197,49,o),
(197,140,cs),
(197,231,o),
(277,280,o),
(277,280,c),
(84,280,ls),
(84,280,o),
(24,238,o),
(24,140,c),
(24,0,l)
);
},
{
closed = 1;
nodes = (
(257,280,l),
(207,400,l),
(34,400,l),
(84,280,l)
);
},
{
closed = 1;
nodes = (
(197,0,l),
(197,0,o),
(197,49,o),
(197,140,cs),
(197,231,o),
(277,280,o),
(277,280,c),
(84,280,ls),
(84,280,o),
(24,238,o),
(24,140,c),
(24,0,l)
);
},
{
closed = 1;
nodes = (
(257,280,l),
(207,400,l),
(34,400,l),
(84,280,l)
);
},
{
closed = 1;
nodes = (
(481,140,l),
(481,238,o),
(421,280,o),
(421,280,cs),
(228,280,l),
(228,280,o),
(308,231,o),
(308,140,cs),
(308,49,o),
(308,0,o),
(308,0,c),
(481,0,l)
);
},
{
closed = 1;
nodes = (
(471,400,l),
(298,400,l),
(248,280,l),
(421,280,l)
);
},
{
closed = 1;
nodes = (
(481,140,l),
(481,238,o),
(421,280,o),
(421,280,cs),
(228,280,l),
(228,280,o),
(308,231,o),
(308,140,cs),
(308,49,o),
(308,0,o),
(308,0,c),
(481,0,l)
);
},
{
closed = 1;
nodes = (
(471,400,l),
(298,400,l),
(248,280,l),
(421,280,l)
);
}
);
};
layerId = m01;
shapes = (
{
closed = 1;
nodes = (
(197,0,l),
(197,140,ls),
(197,194,o),
(225,243,o),
(277,280,c),
(228,280,l),
(280,243,o),
(308,194,o),
(308,140,cs),
(308,0,l),
(481,0,l),
(481,146,ls),
(481,202,o),
(456,258,o),
(421,280,c),
(471,400,l),
(298,400,l),
(248,280,l),
(257,280,l),
(207,400,l),
(34,400,l),
(84,280,l),
(49,259,o),
(24,202,o),
(24,145,cs),
(24,0,l)
);
}
);
width = 505;
}
);
unicode = 120;
},
{
color = 3;
glyphname = y;
kernLeft = u;
kernRight = d;
lastChange = "2023-10-19 18:45:08 +0000";
layers = (
{
anchors = (
{
name = bottom;
pos = (234,0);
},
{
name = top;
pos = (234,400);
}
);
background = {
shapes = (
{
closed = 1;
nodes = (
(24,400,l),
(24,200,ls),
(24,118,o),
(46,42,o),
(82,0,c),
(296,0,l),
(236,45,o),
(197,123,o),
(197,200,cs),
(197,400,l)
);
},
{
closed = 1;
nodes = (
(407,-154,l),
(423,-129,o),
(443,-63,o),
(443,-7,c),
(443,400,l),
(270,400,l),
(270,54,l),
(270,-46,o),
(216,-130,o),
(200,-154,c)
);
}
);
};
layerId = m01;
shapes = (
{
closed = 1;
nodes = (
(407,-154,l),
(426,-124,o),
(443,-55,o),
(443,-7,cs),
(443,400,l),
(270,400,l),
(270,52,ls),
(270,-12,o),
(244,-89,o),
(200,-154,c)
);
},
{
closed = 1;
nodes = (
(296,0,l),
(236,45,o),
(197,123,o),
(197,200,cs),
(197,400,l),
(24,400,l),
(24,200,ls),
(24,118,o),
(46,42,o),
(82,0,c)
);
}
);
width = 468;
}
);
metricLeft = b;
unicode = 121;
},
{
color = 3;
glyphname = z;
lastChange = "2023-10-19 18:45:08 +0000";
layers = (
{
anchors = (
{
name = bottom;
pos = (141,0);
},
{
name = center;
pos = (141,200);
},
{
name = top;
pos = (141,400);
}
);
background = {
shapes = (
{
closed = 1;
nodes = (
(262,0,ls),
(262,0,o),
(212,66,o),
(212,100,cs),
(212,150,o),
(262,230,o),
(262,280,cs),
(262,314,o),
(222,400,o),
(222,400,cs),
(30,400,ls),
(30,400,o),
(70,334,o),
(70,300,cs),
(70,250,o),
(20,170,o),
(20,120,cs),
(20,86,o),
(60,0,o),
(60,0,cs)
);
}
);
};
layerId = m01;
shapes = (
{
closed = 1;
nodes = (
(262,0,l),
(232,40,o),
(212,80,o),
(212,100,cs),
(212,148,o),
(262,232,o),
(262,280,cs),
(262,299,o),
(245,352,o),
(222,400,c),
(30,400,l),
(54,360,o),
(70,320,o),
(70,300,cs),
(70,251,o),
(20,168,o),
(20,120,cs),
(20,100,o),
(37,49,o),
(60,0,c)
);
}
);
width = 282;
}
);
metricRight = s;
unicode = 122;
},
{
color = 8;
glyphname = f.ss01;
lastChange = "2023-10-19 19:11:31 +0000";
layers = (
{
anchors = (
{
name = bottom;
pos = (178,0);
},
{
name = top;
pos = (178,574);
}
);
layerId = m01;
shapes = (
{
closed = 1;
nodes = (
(262,0,l),
(262,400,ls),
(262,442,o),
(267,506,o),
(319,554,c),
(163,554,l),
(102,515,o),
(89,455,o),
(89,407,cs),
(89,0,l)
);
},
{
closed = 1;
nodes = (
(327,280,l),
(327,400,l),
(24,400,l),
(24,280,l)
);
}
);
width = 356;
}
);
},
{
color = 8;
glyphname = j.ss01;
lastChange = "2023-10-19 19:11:31 +0000";
layers = (
{
layerId = m01;
shapes = (
{
closed = 1;
nodes = (
(161,-174,l),
(180,-145,o),
(196,-76,o),
(196,-27,cs),
(197,400,l),
(24,400,l),
(24,34,ls),
(24,-28,o),
(-4,-111,o),
(-46,-174,c)
);
},
{
closed = 1;
nodes = (
(197,434,l),
(197,500,l),
(24,500,l),
(24,434,l)
);
}
);
width = 221;
}
);
},
{
color = 8;
glyphname = t.ss01;
kernRight = t;
lastChange = "2023-10-19 19:11:31 +0000";
layers = (
{
anchors = (
{
name = bottom;
pos = (143,0);
},
{
name = center;
pos = (143,200);
},
{
name = top;
pos = (143,400);
},
{
name = topright;
pos = (266,574);
}
);
layerId = m01;
shapes = (
{
closed = 1;
nodes = (
(262,280,l),
(262,400,l),
(24,400,l),
(24,280,l)
);
},
{
alignment = -1;
pos = (-6,0);
ref = _part.tstem;
}
);
width = 286;
}
);
},
{
color = 8;
glyphname = u.ss01;
lastChange = "2023-10-19 19:11:31 +0000";
layers = (
{
anchors = (
{
name = bottom;
pos = (239,0);
},
{
name = ogonek;
pos = (430,10);
},
{
name = top;
pos = (239,400);
},
{
name = topright;
pos = (458,400);
}
);
background = {
shapes = (
{
closed = 1;
nodes = (
(24,400,l),
(24,200,ls),
(24,118,o),
(46,42,o),
(82,0,c),
(454,0,l),
(454,400,l),
(281,400,l),
(281,0,l),
(296,0,l),
(235,46,o),
(197,123,o),
(197,200,cs),
(197,400,l)
);
}
);
};
layerId = m01;
shapes = (
{
closed = 1;
nodes = (
(454,0,l),
(454,400,l),
(281,400,l),
(281,0,l),
(307,0,l),
(232,56,o),
(197,121,o),
(197,200,cs),
(197,400,l),
(24,400,l),
(24,200,ls),
(24,118,o),
(46,42,o),
(82,0,c)
);
}
);
width = 478;
}
);
},
{
color = 8;
glyphname = v.ss01;
lastChange = "2023-10-19 19:11:31 +0000";
layers = (
{
anchors = (
{
name = bottom;
pos = (238,0);
},
{
name = top;
pos = (238,400);
}
);
background = {
shapes = (
{
closed = 1;
nodes = (
(220,0,l),
(187,400,l),
(14,400,l),
(47,0,l)
);
},
{
closed = 1;
nodes = (
(279,200,ls),
(279,122,o),
(249,51,o),
(194,0,c),
(405,0,l),
(436,48,o),
(452,116,o),
(452,200,cs),
(452,400,l),
(279,400,l)
);
}
);
};
layerId = m01;
shapes = (
{
closed = 1;
nodes = (
(405,0,l),
(436,48,o),
(452,116,o),
(452,200,cs),
(452,400,l),
(279,400,l),
(279,200,ls),
(279,118,o),
(245,38,o),
(194,0,c)
);
},
{
closed = 1;
nodes = (
(220,0,l),
(187,400,l),
(14,400,l),
(47,0,l)
);
}
);
width = 476;
}
);
},
{
color = 8;
glyphname = w.ss01;
lastChange = "2023-10-19 19:11:31 +0000";
layers = (
{
anchors = (
{
name = bottom;
pos = (342,0);
},
{
name = top;
pos = (342,400);
}
);
background = {
shapes = (
{
closed = 1;
nodes = (
(255,400,o),
(255,330,o),
(255,200,cs),
(255,70,o),
(170,0,o),
(170,0,c),
(381,0,l),
(381,0,o),
(428,60,o),
(428,200,c),
(428,400,l),
(255,400,l)
);
},
{
closed = 1;
nodes = (
(197,0,l),
(197,400,l),
(24,400,l),
(24,0,l)
);
},
{
closed = 1;
nodes = (
(486,400,o),
(486,330,o),
(486,200,cs),
(486,70,o),
(363,0,o),
(363,0,c),
(588,0,l),
(588,0,o),
(659,60,o),
(659,200,c),
(659,400,l),
(486,400,l)
);
}
);
};
layerId = m01;
shapes = (
{
closed = 1;
nodes = (
(588,0,l),
(588,0,o),
(659,60,o),
(659,200,c),
(659,400,l),
(486,400,l),
(486,400,o),
(486,330,o),
(486,200,cs),
(486,125,o),
(436,44,o),
(363,0,c)
);
},
{
closed = 1;
nodes = (
(197,0,l),
(197,400,l),
(24,400,l),
(24,0,l)
);
},
{
closed = 1;
nodes = (
(381,0,l),
(410,42,o),
(428,118,o),
(428,200,c),
(428,400,l),
(255,400,l),
(255,400,o),
(255,330,o),
(255,200,cs),
(255,110,o),
(221,29,o),
(170,0,c)
);
}
);
width = 683;
}
);
},
{
color = 8;
glyphname = x.ss01;
lastChange = "2023-10-19 19:11:31 +0000";
layers = (
{
anchors = (
{
name = bottom;
pos = (253,0);
},
{
name = top;
pos = (253,400);
}
);
background = {
shapes = (
{
closed = 1;
nodes = (
(51,400,o),
(49,356,o),
(64,315,cs),
(81,270,o),
(105,255,o),
(134,228,c),
(307,228,l),
(277,247,o),
(241,295,o),
(228,334,cs),
(219,362,o),
(216,379,o),
(224,400,c),
(51,400,l)
);
},
{
closed = 1;
nodes = (
(481,31,o),
(479,93,o),
(465,126,cs),
(443,175,o),
(414,207,o),
(384,228,c),
(202,228,l),
(212,224,o),
(258,173,o),
(279,126,cs),
(296,88,o),
(302,0,o),
(302,0,c),
(481,0,l)
);
},
{
closed = 1;
nodes = (
(385,228,l),
(465,400,l),
(292,400,l),
(224,228,l)
);
},
{
closed = 1;
nodes = (
(197,0,l),
(307,228,l),
(134,228,l),
(24,0,l)
);
}
);
};
layerId = m01;
shapes = (
{
closed = 1;
nodes = (
(481,0,l),
(481,54,o),
(475,103,o),
(465,126,cs),
(445,170,o),
(418,204,o),
(384,228,c),
(211,228,l),
(245,203,o),
(268,170,o),
(286,120,cs),
(304,69,o),
(302,0,o),
(302,0,c)
);
},
{
closed = 1;
nodes = (
(197,0,l),
(292,228,l),
(119,228,l),
(24,0,l)
);
},
{
closed = 1;
nodes = (
(292,228,l),
(263,252,o),
(240,285,o),
(228,322,cs),
(218,352,o),
(217,380,o),
(224,400,c),
(51,400,l),
(48,371,o),
(52,342,o),
(64,311,cs),
(77,278,o),
(96,249,o),
(119,228,c)
);
},
{
closed = 1;
nodes = (
(385,228,l),
(455,400,l),
(282,400,l),
(224,228,l)
);
}
);
width = 505;
}
);
},
{
color = 8;
glyphname = z.ss01;
lastChange = "2023-10-19 19:11:31 +0000";
layers = (
{
anchors = (
{
name = bottom;
pos = (253,0);
},
{
name = bowl;
pos = (572,256);
},
{
name = center;
pos = (253,200);
},
{
name = kleg;
pos = (292,252);
},
{
name = leg;
pos = (172,254);
},
{
name = top;
pos = (253,400);
}
);
background = {
shapes = (
{
closed = 1;
nodes = (
(203,0,l),
(203,0,o),
(190,59,o),
(212,120,cs),
(226,160,o),
(255,198,o),
(294,222,c),
(121,222,l),
(87,198,o),
(55,159,o),
(40,126,cs),
(25,92,o),
(24,54,o),
(24,0,c)
);
},
{
closed = 1;
nodes = (
(294,222,l),
(329,250,o),
(357,271,o),
(372,311,cs),
(382,335,o),
(388,371,o),
(385,400,c),
(212,400,l),
(219,380,o),
(215,344,o),
(208,322,cs),
(193,277,o),
(150,246,o),
(121,222,c)
);
},
{
closed = 1;
nodes = (
(24,400,l),
(24,296,l),
(272,296,l),
(272,400,l)
);
},
{
closed = 1;
nodes = (
(128,104,l),
(128,0,l),
(376,0,l),
(376,104,l)
);
}
);
};
layerId = m01;
shapes = (
{
closed = 1;
nodes = (
(203,0,l),
(203,0,o),
(185,43,o),
(212,120,cs),
(228,163,o),
(250,195,o),
(276,214,c),
(300,231,o),
(333,276,o),
(349,311,cs),
(361,342,o),
(365,371,o),
(362,400,c),
(189,400,l),
(195,382,o),
(194,349,o),
(185,322,cs),
(173,285,o),
(138,240,o),
(103,214,c),
(75,190,o),
(49,153,o),
(40,126,cs),
(28,88,o),
(24,57,o),
(24,0,c)
);
},
{
closed = 1;
nodes = (
(345,0,l),
(345,104,l),
(128,104,l),
(128,0,l)
);
},
{
closed = 1;
nodes = (
(249,296,l),
(249,400,l),
(40,400,l),
(40,296,l)
);
}
);
width = 505;
}
);
},
{
color = 8;
glyphname = t_t.liga;
kernRight = t;
lastChange = "2023-10-24 14:57:20 +0000";
layers = (
{
anchors = (
{
name = bottom_1;
pos = (124,0);
},
{
name = bottom_2;
pos = (397,0);
},
{
name = caret_1;
pos = (261,0);
},
{
name = center_1;
pos = (124,200);
},
{
name = center_2;
pos = (397,200);
},
{
name = top_1;
pos = (124,400);
},
{
name = top_2;
pos = (397,400);
},
{
name = topright_1;
pos = (514,574);
},
{
name = topright_2;
pos = (514,574);
}
);
layerId = m01;
shapes = (
{
closed = 1;
nodes = (
(249,280,l),
(249,400,l),
(11,400,l),
(11,280,l)
);
},
{
alignment = -1;
pos = (-19,0);
ref = _part.tstem;
},
{
alignment = -1;
pos = (242,0);
ref = _part.tstem;
},
{
pos = (179,0);
ref = _part.crossbar;
}
);
width = 528;
}
);
metricLeft = t;
metricRight = t;
},
{
color = 2;
glyphname = zero;
lastChange = "2023-10-20 14:09:59 +0000";
layers = (
{
background = {
shapes = (
{
closed = 1;
nodes = (
(266,0,l),
(222,71,o),
(197,172,o),
(197,277,cs),
(197,393,o),
(223,488,o),
(266,554,c),
(62,554,l),
(38,494,o),
(24,392,o),
(24,277,cs),
(24,164,o),
(38,58,o),
(62,0,c)
);
},
{
closed = 1;
nodes = (
(434,0,l),
(458,64,o),
(472,165,o),
(472,277,cs),
(472,391,o),
(457,498,o),
(434,554,c),
(230,554,l),
(265,498,o),
(299,393,o),
(299,277,cs),
(299,146,o),
(258,40,o),
(230,0,c)
);
}
);
};
layerId = m01;
shapes = (
{
closed = 1;
nodes = (
(434,0,l),
(458,60,o),
(472,164,o),
(472,277,cs),
(472,390,o),
(458,494,o),
(434,554,c),
(230,554,l),
(275,485,o),
(299,390,o),
(299,277,cs),
(299,164,o),
(275,69,o),
(230,0,c)
);
},
{
closed = 1;
nodes = (
(266,0,l),
(221,69,o),
(197,164,o),
(197,277,cs),
(197,390,o),
(221,485,o),
(266,554,c),
(62,554,l),
(38,494,o),
(24,390,o),
(24,277,cs),
(24,164,o),
(38,60,o),
(62,0,c)
);
}
);
width = 496;
}
);
unicode = 48;
},
{
color = 2;
glyphname = one;
lastChange = "2023-10-19 19:11:45 +0000";
layers = (
{
layerId = m01;
shapes = (
{
closed = 1;
nodes = (
(205,0,l),
(205,554,l),
(69,554,l),
(43,505,o),
(32,446,o),
(32,367,cs),
(32,0,l)
);
}
);
width = 241;
}
);
unicode = 49;
},
{
color = 2;
glyphname = two;
lastChange = "2023-10-20 13:28:51 +0000";
layers = (
{
layerId = m01;
shapes = (
{
closed = 1;
nodes = (
(268,0,l),
(240,34,o),
(224,76,o),
(224,112,cs),
(224,155,o),
(238,174,o),
(327,246,cs),
(414,316,o),
(444,396,o),
(444,439,cs),
(444,493,o),
(432,521,o),
(412,554,c),
(221,554,l),
(254,513,o),
(266,487,o),
(266,451,cs),
(266,418,o),
(244,373,o),
(162,305,cs),
(76,234,o),
(38,168,o),
(38,120,cs),
(38,88,o),
(38,46,o),
(52,0,c)
);
},
{
closed = 1;
nodes = (
(447,0,l),
(447,120,l),
(163,120,l),
(163,0,l)
);
},
{
closed = 1;
nodes = (
(217,386,l),
(215,398,o),
(215,407,o),
(215,422,cs),
(215,459,o),
(237,515,o),
(267,554,c),
(81,554,l),
(57,522,o),
(40,471,o),
(40,432,cs),
(40,411,o),
(41,398,o),
(43,386,c)
);
}
);
width = 497;
}
);
unicode = 50;
},
{
color = 2;
glyphname = three;
lastChange = "2023-10-19 19:11:45 +0000";
layers = (
{
layerId = m01;
shapes = (
{
closed = 1;
nodes = (
(414,274,l),
(420,289,o),
(443,355,o),
(443,399,cs),
(443,479,o),
(408,553,o),
(408,553,c),
(203,553,l),
(211,553,o),
(270,489,o),
(270,399,cs),
(270,360,o),
(237,288,o),
(231,274,c)
);
},
{
closed = 1;
nodes = (
(261,0,l),
(253,0,o),
(194,43,o),
(194,123,cs),
(194,157,o),
(194,193,o),
(209,225,c),
(31,225,l),
(25,203,o),
(21,160,o),
(21,141,cs),
(21,61,o),
(56,0,o),
(56,0,c)
);
},
{
closed = 1;
nodes = (
(408,0,l),
(408,0,o),
(443,74,o),
(443,154,cs),
(443,198,o),
(420,259,o),
(414,274,c),
(231,274,l),
(237,260,o),
(270,193,o),
(270,154,cs),
(270,64,o),
(211,0,o),
(203,0,c)
);
},
{
closed = 1;
nodes = (
(209,328,l),
(194,360,o),
(194,396,o),
(194,430,cs),
(194,510,o),
(253,553,o),
(261,553,c),
(56,553,l),
(56,553,o),
(21,492,o),
(21,412,cs),
(21,393,o),
(25,350,o),
(31,328,c)
);
}
);
width = 464;
}
);
unicode = 51;
},
{
color = 2;
glyphname = four;
lastChange = "2023-10-24 14:57:20 +0000";
layers = (
{
layerId = m01;
shapes = (
{
closed = 1;
nodes = (
(304,152,l),
(304,152,o),
(205,222,o),
(205,352,cs),
(205,482,o),
(304,552,o),
(304,552,c),
(90,552,l),
(90,552,o),
(32,492,o),
(32,352,cs),
(32,212,o),
(90,152,o),
(90,152,c)
);
},
{
closed = 1;
nodes = (
(449,0,l),
(449,434,l),
(276,434,l),
(276,0,l)
);
}
);
width = 473;
}
);
metricLeft = c;
metricRight = d;
unicode = 52;
},
{
color = 2;
glyphname = five;
lastChange = "2023-10-20 13:30:26 +0000";
layers = (
{
layerId = m01;
shapes = (
{
closed = 1;
nodes = (
(404,0,l),
(404,0,o),
(447,90,o),
(447,171,cs),
(447,273,o),
(385,337,o),
(379,352,c),
(179,352,l),
(185,338,o),
(274,268,o),
(274,171,cs),
(274,80,o),
(215,0,o),
(207,0,c)
);
},
{
closed = 1;
nodes = (
(265,0,l),
(257,0,o),
(198,43,o),
(198,123,cs),
(198,157,o),
(198,193,o),
(213,225,c),
(35,225,l),
(29,203,o),
(25,160,o),
(25,141,cs),
(25,61,o),
(60,0,o),
(60,0,c)
);
},
{
closed = 1;
nodes = (
(198,298,l),
(198,554,l),
(25,554,l),
(25,298,l)
);
},
{
closed = 1;
nodes = (
(415,434,l),
(415,554,l),
(25,554,l),
(25,434,l)
);
}
);
width = 456;
}
);
unicode = 53;
},
{
color = 2;
glyphname = six;
lastChange = "2023-10-24 14:57:20 +0000";
layers = (
{
layerId = m01;
shapes = (
{
closed = 1;
nodes = (
(262,0,l),
(262,0,o),
(204,90,o),
(204,220,cs),
(204,376,o),
(308,554,o),
(308,554,c),
(98,554,l),
(98,554,o),
(35,359,o),
(32,220,cs),
(29,80,o),
(63,0,o),
(63,0,c)
);
},
{
closed = 1;
nodes = (
(425,0,l),
(425,0,o),
(450,60,o),
(450,200,cs),
(450,340,o),
(408,400,o),
(408,400,c),
(209,400,l),
(209,400,o),
(282,330,o),
(282,200,cs),
(282,70,o),
(226,0,o),
(226,0,c)
);
}
);
width = 482;
}
);
metricLeft = d;
metricRight = o;
unicode = 54;
},
{
color = 2;
glyphname = seven;
lastChange = "2023-10-19 19:11:45 +0000";
layers = (
{
anchors = (
{
name = bowl;
pos = (178,0);
},
{
name = connector;
pos = (345,190);
},
{
name = jot;
pos = (239,400);
}
);
layerId = m01;
shapes = (
{
closed = 1;
nodes = (
(290,0,l),
(316,40,o),
(409,247,o),
(409,434,cs),
(409,554,l),
(236,554,l),
(237,434,ls),
(239,235,o),
(110,40,o),
(83,0,c)
);
},
{
closed = 1;
nodes = (
(409,434,l),
(409,554,l),
(24,554,l),
(24,434,l)
);
}
);
width = 433;
}
);
unicode = 55;
},
{
color = 2;
glyphname = eight;
lastChange = "2023-10-24 14:57:20 +0000";
layers = (
{
anchors = (
{
name = oconnect;
pos = (184,0);
}
);
layerId = m01;
shapes = (
{
closed = 1;
nodes = (
(423,273,l),
(440,316,o),
(452,369,o),
(452,403,cs),
(452,483,o),
(417,552,o),
(417,552,c),
(212,552,l),
(220,552,o),
(279,493,o),
(279,403,cs),
(279,351,o),
(246,287,o),
(240,273,c)
);
},
{
closed = 1;
nodes = (
(272,-1,l),
(264,-1,o),
(205,57,o),
(205,147,cs),
(205,193,o),
(238,259,o),
(244,273,c),
(61,273,l),
(55,258,o),
(32,198,o),
(32,147,cs),
(32,67,o),
(67,-1,o),
(67,-1,c)
);
},
{
closed = 1;
nodes = (
(417,-1,l),
(417,-1,o),
(452,67,o),
(452,147,cs),
(452,198,o),
(429,258,o),
(423,273,c),
(240,273,l),
(246,259,o),
(279,193,o),
(279,147,cs),
(279,57,o),
(220,-1,o),
(212,-1,c)
);
},
{
closed = 1;
nodes = (
(244,273,l),
(238,287,o),
(205,351,o),
(205,403,cs),
(205,493,o),
(264,552,o),
(272,552,c),
(67,552,l),
(67,552,o),
(32,483,o),
(32,403,cs),
(32,346,o),
(55,288,o),
(61,273,c)
);
}
);
width = 484;
}
);
metricLeft = o;
metricRight = o;
unicode = 56;
},
{
color = 2;
glyphname = nine;
lastChange = "2023-10-24 14:57:20 +0000";
layers = (
{
layerId = m01;
shapes = (
{
closed = 1;
nodes = (
(384,0,l),
(384,0,o),
(447,195,o),
(450,334,cs),
(453,474,o),
(419,554,o),
(419,554,c),
(220,554,l),
(220,554,o),
(278,464,o),
(278,334,cs),
(278,178,o),
(174,0,o),
(174,0,c)
);
},
{
closed = 1;
nodes = (
(273,154,l),
(273,154,o),
(200,224,o),
(200,354,cs),
(200,484,o),
(256,554,o),
(256,554,c),
(57,554,l),
(57,554,o),
(32,494,o),
(32,354,cs),
(32,214,o),
(74,154,o),
(74,154,c)
);
}
);
width = 482;
}
);
metricLeft = o;
metricRight = o;
unicode = 57;
},
{
color = 8;
glyphname = one.osf;
lastChange = "2023-10-19 19:11:49 +0000";
layers = (
{
layerId = m01;
shapes = (
{
closed = 1;
nodes = (
(197,0,l),
(197,400,l),
(24,400,l),
(24,0,l)
);
}
);
width = 221;
}
);
},
{
color = 8;
glyphname = two.osf;
lastChange = "2023-10-19 19:11:49 +0000";
layers = (
{
anchors = (
{
name = _connector;
pos = (-405,112);
},
{
name = connector;
pos = (752,400);
}
);
guides = (
{
pos = (230,245);
}
);
layerId = m01;
shapes = (
{
closed = 1;
nodes = (
(415,174,l),
(421,185,o),
(441,232,o),
(441,276,cs),
(441,356,o),
(406,400,o),
(406,400,c),
(201,400,l),
(239,383,o),
(268,329,o),
(268,275,cs),
(268,236,o),
(239,185,o),
(230,174,c)
);
},
{
closed = 1;
nodes = (
(197,0,l),
(197,15,l),
(197,133,o),
(254,185,o),
(254,185,cs),
(71,185,l),
(63,176,o),
(24,135,o),
(24,14,c),
(24,0,l)
);
},
{
closed = 1;
nodes = (
(433,0,l),
(433,120,l),
(163,120,l),
(163,0,l)
);
},
{
closed = 1;
nodes = (
(194,245,l),
(194,259,l),
(194,349,o),
(252,400,o),
(252,400,c),
(51,400,l),
(51,400,o),
(21,339,o),
(21,259,c),
(21,245,l)
);
}
);
width = 462;
}
);
},
{
color = 8;
glyphname = three.osf;
lastChange = "2023-10-19 19:11:49 +0000";
layers = (
{
layerId = m01;
shapes = (
{
closed = 1;
nodes = (
(414,120,l),
(420,135,o),
(443,201,o),
(443,245,cs),
(443,325,o),
(408,399,o),
(408,399,c),
(203,399,l),
(211,399,o),
(270,335,o),
(270,245,cs),
(270,206,o),
(237,134,o),
(231,120,c)
);
},
{
closed = 1;
nodes = (
(261,-154,l),
(253,-154,o),
(194,-111,o),
(194,-31,cs),
(194,3,o),
(194,39,o),
(209,71,c),
(31,71,l),
(25,49,o),
(21,6,o),
(21,-13,cs),
(21,-93,o),
(56,-154,o),
(56,-154,c)
);
},
{
closed = 1;
nodes = (
(408,-154,l),
(408,-154,o),
(443,-80,o),
(443,0,cs),
(443,44,o),
(420,105,o),
(414,120,c),
(231,120,l),
(237,106,o),
(270,39,o),
(270,0,cs),
(270,-90,o),
(211,-154,o),
(203,-154,c)
);
},
{
closed = 1;
nodes = (
(209,174,l),
(194,206,o),
(194,242,o),
(194,276,cs),
(194,356,o),
(253,399,o),
(261,399,c),
(56,399,l),
(56,399,o),
(21,338,o),
(21,258,cs),
(21,239,o),
(25,196,o),
(31,174,c)
);
}
);
width = 464;
}
);
},
{
color = 8;
glyphname = four.osf;
lastChange = "2023-10-24 14:57:20 +0000";
layers = (
{
layerId = m01;
shapes = (
{
closed = 1;
nodes = (
(304,-2,l),
(304,-2,o),
(205,68,o),
(205,198,cs),
(205,328,o),
(304,398,o),
(304,398,c),
(90,398,l),
(90,398,o),
(32,338,o),
(32,198,cs),
(32,58,o),
(90,-2,o),
(90,-2,c)
);
},
{
closed = 1;
nodes = (
(449,-154,l),
(449,280,l),
(276,280,l),
(276,-154,l)
);
}
);
width = 473;
}
);
metricLeft = c;
metricRight = d;
},
{
color = 8;
glyphname = five.osf;
lastChange = "2023-10-19 19:11:49 +0000";
layers = (
{
layerId = m01;
shapes = (
{
closed = 1;
nodes = (
(404,-154,l),
(404,-154,o),
(447,-64,o),
(447,17,cs),
(447,119,o),
(385,183,o),
(379,198,c),
(179,198,l),
(185,184,o),
(274,114,o),
(274,17,cs),
(274,-74,o),
(215,-154,o),
(207,-154,c)
);
},
{
closed = 1;
nodes = (
(265,-154,l),
(257,-154,o),
(198,-111,o),
(198,-31,cs),
(198,3,o),
(198,39,o),
(213,71,c),
(35,71,l),
(29,49,o),
(25,6,o),
(25,-13,cs),
(25,-93,o),
(60,-154,o),
(60,-154,c)
);
},
{
closed = 1;
nodes = (
(198,144,l),
(198,400,l),
(25,400,l),
(25,144,l)
);
},
{
closed = 1;
nodes = (
(432,280,l),
(432,400,l),
(25,400,l),
(25,280,l)
);
}
);
width = 456;
}
);
},
{
color = 8;
glyphname = six.osf;
lastChange = "2023-10-24 14:57:20 +0000";
layers = (
{
layerId = m01;
shapes = (
{
closed = 1;
nodes = (
(262,0,l),
(262,0,o),
(204,90,o),
(204,220,cs),
(204,376,o),
(308,554,o),
(308,554,c),
(98,554,l),
(98,554,o),
(35,359,o),
(32,220,cs),
(29,80,o),
(63,0,o),
(63,0,c)
);
},
{
closed = 1;
nodes = (
(425,0,l),
(425,0,o),
(450,60,o),
(450,200,cs),
(450,340,o),
(408,400,o),
(408,400,c),
(209,400,l),
(209,400,o),
(282,330,o),
(282,200,cs),
(282,70,o),
(226,0,o),
(226,0,c)
);
}
);
width = 482;
}
);
metricLeft = d;
metricRight = o;
},
{
color = 8;
glyphname = seven.osf;
lastChange = "2023-10-19 19:11:49 +0000";
layers = (
{
anchors = (
{
name = bowl;
pos = (178,0);
},
{
name = connector;
pos = (345,190);
},
{
name = jot;
pos = (239,400);
}
);
layerId = m01;
shapes = (
{
closed = 1;
nodes = (
(290,-154,l),
(316,-114,o),
(409,93,o),
(409,280,cs),
(409,400,l),
(236,400,l),
(237,280,ls),
(239,81,o),
(110,-114,o),
(83,-154,c)
);
},
{
closed = 1;
nodes = (
(409,280,l),
(409,400,l),
(24,400,l),
(24,280,l)
);
}
);
width = 433;
}
);
},
{
color = 8;
glyphname = eight.osf;
lastChange = "2023-10-24 14:57:20 +0000";
layers = (
{
anchors = (
{
name = oconnect;
pos = (184,0);
}
);
layerId = m01;
shapes = (
{
closed = 1;
nodes = (
(423,273,l),
(429,288,o),
(452,346,o),
(452,403,cs),
(452,483,o),
(417,552,o),
(417,552,c),
(212,552,l),
(220,552,o),
(279,493,o),
(279,403,cs),
(279,351,o),
(246,287,o),
(240,273,c)
);
},
{
closed = 1;
nodes = (
(272,-1,l),
(264,-1,o),
(205,57,o),
(205,147,cs),
(205,193,o),
(238,259,o),
(244,273,c),
(61,273,l),
(55,258,o),
(32,198,o),
(32,147,cs),
(32,67,o),
(67,-1,o),
(67,-1,c)
);
},
{
closed = 1;
nodes = (
(417,-1,l),
(417,-1,o),
(452,67,o),
(452,147,cs),
(452,198,o),
(429,258,o),
(423,273,c),
(240,273,l),
(246,259,o),
(279,193,o),
(279,147,cs),
(279,57,o),
(220,-1,o),
(212,-1,c)
);
},
{
closed = 1;
nodes = (
(244,273,l),
(238,287,o),
(205,351,o),
(205,403,cs),
(205,493,o),
(264,552,o),
(272,552,c),
(67,552,l),
(67,552,o),
(32,483,o),
(32,403,cs),
(32,346,o),
(55,288,o),
(61,273,c)
);
}
);
width = 484;
}
);
metricLeft = o;
metricRight = o;
},
{
color = 8;
glyphname = nine.osf;
lastChange = "2023-10-24 14:57:20 +0000";
layers = (
{
layerId = m01;
shapes = (
{
closed = 1;
nodes = (
(384,-154,l),
(384,-154,o),
(447,41,o),
(450,180,cs),
(453,320,o),
(419,400,o),
(419,400,c),
(220,400,l),
(220,400,o),
(278,310,o),
(278,180,cs),
(278,24,o),
(174,-154,o),
(174,-154,c)
);
},
{
closed = 1;
nodes = (
(273,0,l),
(273,0,o),
(200,70,o),
(200,200,cs),
(200,330,o),
(256,400,o),
(256,400,c),
(57,400,l),
(57,400,o),
(32,340,o),
(32,200,cs),
(32,60,o),
(74,0,o),
(74,0,c)
);
}
);
width = 482;
}
);
metricLeft = o;
metricRight = o;
},
{
color = 8;
glyphname = one.ss01;
lastChange = "2023-10-19 19:11:49 +0000";
layers = (
{
layerId = m01;
shapes = (
{
closed = 1;
nodes = (
(205,0,l),
(205,554,l),
(59,554,l),
(33,505,o),
(32,425,o),
(32,367,cs),
(32,0,l)
);
}
);
width = 241;
}
);
},
{
color = 8;
glyphname = two.ss01;
lastChange = "2023-10-19 19:11:49 +0000";
layers = (
{
anchors = (
{
name = _connector;
pos = (-405,112);
},
{
name = connector;
pos = (752,400);
}
);
guides = (
{
pos = (230,245);
}
);
layerId = m01;
shapes = (
{
closed = 1;
nodes = (
(415,174,l),
(421,185,o),
(441,232,o),
(441,276,cs),
(441,356,o),
(406,400,o),
(406,400,c),
(201,400,l),
(239,383,o),
(268,329,o),
(268,275,cs),
(268,236,o),
(239,185,o),
(230,174,c)
);
},
{
closed = 1;
nodes = (
(197,0,l),
(197,15,l),
(197,133,o),
(254,185,o),
(254,185,cs),
(71,185,l),
(63,176,o),
(24,135,o),
(24,14,c),
(24,0,l)
);
},
{
closed = 1;
nodes = (
(433,0,l),
(433,120,l),
(163,120,l),
(163,0,l)
);
},
{
closed = 1;
nodes = (
(194,245,l),
(194,259,l),
(194,349,o),
(252,400,o),
(252,400,c),
(51,400,l),
(51,400,o),
(21,339,o),
(21,259,c),
(21,245,l)
);
}
);
width = 462;
}
);
},
{
glyphname = five.ss01;
lastChange = "2023-10-20 13:36:04 +0000";
layers = (
{
anchors = (
{
name = bowl;
pos = (652,0);
},
{
name = connector;
pos = (819,190);
},
{
name = jot;
pos = (713,400);
}
);
background = {
shapes = (
{
closed = 1;
nodes = (
(404,0,l),
(404,0,o),
(447,90,o),
(447,171,cs),
(447,273,o),
(385,337,o),
(379,352,c),
(179,352,l),
(185,338,o),
(274,268,o),
(274,171,cs),
(274,80,o),
(215,0,o),
(207,0,c)
);
},
{
closed = 1;
nodes = (
(265,0,l),
(257,0,o),
(198,43,o),
(198,123,cs),
(198,157,o),
(198,193,o),
(213,225,c),
(35,225,l),
(29,203,o),
(25,160,o),
(25,141,cs),
(25,61,o),
(60,0,o),
(60,0,c)
);
},
{
closed = 1;
nodes = (
(198,298,l),
(198,554,l),
(25,554,l),
(25,298,l)
);
},
{
closed = 1;
nodes = (
(415,434,l),
(415,554,l),
(25,554,l),
(25,434,l)
);
}
);
};
layerId = m01;
shapes = (
{
closed = 1;
nodes = (
(404,0,l),
(404,0,o),
(447,90,o),
(447,171,cs),
(447,263,o),
(385,317,o),
(379,332,c),
(179,332,l),
(185,318,o),
(274,258,o),
(274,171,cs),
(274,80,o),
(215,0,o),
(207,0,c)
);
},
{
closed = 1;
nodes = (
(265,0,l),
(257,0,o),
(198,43,o),
(198,123,cs),
(198,157,o),
(198,193,o),
(213,225,c),
(35,225,l),
(29,203,o),
(25,160,o),
(25,141,cs),
(25,61,o),
(60,0,o),
(60,0,c)
);
},
{
closed = 1;
nodes = (
(203,332,l),
(199,359,o),
(197,401,o),
(197,434,cs),
(198,554,l),
(25,554,l),
(25,434,ls),
(25,401,o),
(27,360,o),
(30,332,c)
);
},
{
closed = 1;
nodes = (
(410,554,l),
(25,554,l),
(25,434,l),
(410,434,l)
);
}
);
width = 457;
}
);
},
{
glyphname = one.ss02;
lastChange = "2023-10-20 12:56:41 +0000";
layers = (
{
layerId = m01;
shapes = (
{
closed = 1;
nodes = (
(422,0,l),
(422,554,l),
(249,554,l),
(249,0,l)
);
},
{
closed = 1;
nodes = (
(76,554,l),
(50,511,o),
(32,387,o),
(32,342,c),
(205,342,l),
(205,391,o),
(234,517,o),
(278,554,c)
);
}
);
width = 458;
}
);
},
{
glyphname = one.ss03;
lastChange = "2023-10-20 13:24:24 +0000";
layers = (
{
layerId = m01;
shapes = (
{
closed = 1;
nodes = (
(422,0,l),
(422,554,l),
(249,554,l),
(249,0,l)
);
},
{
closed = 1;
nodes = (
(212,342,l),
(238,385,o),
(256,509,o),
(256,554,c),
(94,554,l),
(94,505,o),
(55,384,o),
(21,342,c)
);
}
);
width = 454;
}
);
},
{
color = 2;
glyphname = asterisk_node;
lastChange = "2023-10-25 15:18:19 +0000";
layers = (
{
layerId = m01;
shapes = (
{
closed = 1;
nodes = (
(418,337,l),
(408,413,o),
(379,463,o),
(328,519,c),
(160,519,l),
(197,470,o),
(224,407,o),
(236,337,c)
);
}
);
width = 600;
}
);
},
{
color = 2;
glyphname = period;
lastChange = "2023-10-19 19:11:56 +0000";
layers = (
{
background = {
shapes = (
{
closed = 1;
nodes = (
(197,0,l),
(197,120,l),
(24,120,l),
(24,0,l)
);
}
);
};
layerId = m01;
shapes = (
{
closed = 1;
nodes = (
(182,0,l),
(195,13,o),
(203,32,o),
(203,66,cs),
(203,87,o),
(200,108,o),
(194,130,c),
(40,130,l),
(27,117,o),
(19,97,o),
(19,64,cs),
(19,43,o),
(22,22,o),
(28,0,c)
);
}
);
width = 227;
}
);
unicode = 46;
},
{
color = 2;
glyphname = comma;
lastChange = "2023-10-19 19:11:56 +0000";
layers = (
{
background = {
shapes = (
{
closed = 1;
nodes = (
(195,13,o),
(203,32,o),
(203,66,cs),
(203,87,o),
(200,108,o),
(194,130,c),
(40,130,l),
(27,117,o),
(19,97,o),
(19,64,cs),
(19,43,o),
(22,22,o),
(28,0,c),
(182,0,l)
);
}
);
};
layerId = m01;
shapes = (
{
closed = 1;
nodes = (
(152,-85,l),
(184,-42,o),
(203,13,o),
(203,59,cs),
(203,100,o),
(195,118,o),
(182,130,c),
(24,130,l),
(24,0,l),
(64,0,l),
(64,-85,l)
);
}
);
width = 227;
}
);
unicode = 44;
},
{
color = 2;
glyphname = colon;
lastChange = "2023-10-19 19:11:56 +0000";
layers = (
{
background = {
shapes = (
{
closed = 1;
nodes = (
(195,13,o),
(203,32,o),
(203,66,cs),
(203,87,o),
(200,108,o),
(194,130,c),
(40,130,l),
(27,117,o),
(19,97,o),
(19,64,cs),
(19,43,o),
(22,22,o),
(28,0,c),
(182,0,l)
);
},
{
closed = 1;
nodes = (
(195,347,o),
(203,366,o),
(203,400,cs),
(203,421,o),
(200,442,o),
(194,464,c),
(40,464,l),
(27,451,o),
(19,431,o),
(19,398,cs),
(19,377,o),
(22,356,o),
(28,334,c),
(182,334,l)
);
}
);
};
layerId = m01;
shapes = (
{
ref = period;
},
{
pos = (0,334);
ref = period;
}
);
width = 221;
}
);
unicode = 58;
},
{
color = 2;
glyphname = semicolon;
lastChange = "2023-10-19 19:11:56 +0000";
layers = (
{
background = {
shapes = (
{
closed = 1;
nodes = (
(195,13,o),
(203,32,o),
(203,66,cs),
(203,87,o),
(200,108,o),
(194,130,c),
(40,130,l),
(27,117,o),
(19,97,o),
(19,64,cs),
(19,43,o),
(22,22,o),
(28,0,c),
(182,0,l)
);
},
{
closed = 1;
nodes = (
(195,347,o),
(203,366,o),
(203,400,cs),
(203,421,o),
(200,442,o),
(194,464,c),
(40,464,l),
(27,451,o),
(19,431,o),
(19,398,cs),
(19,377,o),
(22,356,o),
(28,334,c),
(182,334,l)
);
}
);
};
layerId = m01;
shapes = (
{
pos = (0,334);
ref = period;
},
{
ref = comma;
}
);
width = 227;
}
);
unicode = 59;
},
{
color = 2;
glyphname = exclam;
lastChange = "2023-10-20 13:45:03 +0000";
layers = (
{
layerId = m01;
shapes = (
{
closed = 1;
nodes = (
(182,0,l),
(195,13,o),
(203,32,o),
(203,66,cs),
(203,87,o),
(200,108,o),
(194,130,c),
(40,130,l),
(27,117,o),
(19,97,o),
(19,64,cs),
(19,43,o),
(22,22,o),
(28,0,c)
);
},
{
closed = 1;
nodes = (
(182,174,l),
(198,574,l),
(25,574,l),
(41,174,l)
);
}
);
width = 227;
}
);
unicode = 33;
},
{
color = 2;
glyphname = question;
lastChange = "2023-10-20 13:52:55 +0000";
layers = (
{
background = {
shapes = (
{
closed = 1;
nodes = (
(273,166,l),
(273,201,o),
(253,218,o),
(342,281,cs),
(405,326,o),
(414,414,o),
(414,452,cs),
(414,500,o),
(402,525,o),
(382,554,c),
(191,554,l),
(224,518,o),
(236,495,o),
(236,463,cs),
(236,434,o),
(234,375,o),
(177,334,cs),
(91,271,o),
(87,212,o),
(87,166,c)
);
},
{
closed = 1;
nodes = (
(187,405,l),
(185,416,o),
(185,424,o),
(185,437,cs),
(185,470,o),
(207,519,o),
(237,554,c),
(51,554,l),
(27,526,o),
(10,481,o),
(10,446,cs),
(10,427,o),
(11,416,o),
(13,405,c)
);
}
);
};
layerId = m01;
shapes = (
{
pos = (67,0);
ref = period;
},
{
closed = 1;
nodes = (
(261,166,l),
(261,189,o),
(261,221,o),
(321,279,cs),
(408,364,o),
(402,414,o),
(402,452,cs),
(402,500,o),
(390,525,o),
(370,554,c),
(191,554,l),
(224,518,o),
(236,495,o),
(236,463,cs),
(236,434,o),
(234,386,o),
(177,334,cs),
(99,262,o),
(87,212,o),
(87,166,c)
);
},
{
closed = 1;
nodes = (
(187,405,l),
(185,416,o),
(185,424,o),
(185,437,cs),
(185,470,o),
(207,519,o),
(237,554,c),
(51,554,l),
(27,526,o),
(10,481,o),
(10,446,cs),
(10,427,o),
(11,416,o),
(13,405,c)
);
}
);
width = 424;
}
);
unicode = 63;
},
{
color = 2;
glyphname = bullet;
lastChange = "2023-10-20 13:58:27 +0000";
layers = (
{
layerId = m01;
shapes = (
{
closed = 1;
nodes = (
(235,204,l),
(251,222,o),
(260,248,o),
(260,294,cs),
(260,323,o),
(257,352,o),
(249,382,c),
(65,382,l),
(49,364,o),
(40,337,o),
(40,292,cs),
(40,263,o),
(43,234,o),
(51,204,c)
);
}
);
width = 300;
}
);
unicode = 8226;
},
{
color = 2;
glyphname = numbersign;
lastChange = "2023-10-20 14:10:08 +0000";
layers = (
{
background = {
shapes = (
{
closed = 1;
nodes = (
(542,0,l),
(542,554,l),
(369,554,l),
(369,0,l)
);
},
{
closed = 1;
nodes = (
(253,0,l),
(253,554,l),
(80,554,l),
(80,0,l)
);
},
{
closed = 1;
nodes = (
(513,234,l),
(513,354,l),
(102,354,l),
(102,234,l)
);
}
);
};
layerId = m01;
shapes = (
{
closed = 1;
nodes = (
(222,0,l),
(363,566,l),
(237,566,l),
(96,0,l)
);
},
{
closed = 1;
nodes = (
(222,0,l),
(363,566,l),
(237,566,l),
(96,0,l)
);
},
{
closed = 1;
nodes = (
(439,0,l),
(580,566,l),
(513,566,l),
(372,0,l)
);
},
{
closed = 1;
nodes = (
(439,0,l),
(580,566,l),
(454,566,l),
(313,0,l)
);
},
{
closed = 1;
nodes = (
(611,320,l),
(625,417,l),
(92,417,l),
(79,320,l)
);
},
{
closed = 1;
nodes = (
(583,150,l),
(596,247,l),
(61,247,l),
(48,150,l)
);
}
);
width = 673;
}
);
unicode = 35;
},
{
color = 2;
glyphname = slash;
lastChange = "2023-10-20 14:03:21 +0000";
layers = (
{
layerId = m01;
shapes = (
{
closed = 1;
nodes = (
(219,-20,l),
(360,574,l),
(195,574,l),
(54,-20,l)
);
}
);
width = 414;
}
);
unicode = 47;
},
{
color = 2;
glyphname = hyphen;
lastChange = "2023-10-20 14:40:59 +0000";
layers = (
{
layerId = m01;
shapes = (
{
closed = 1;
nodes = (
(316,170,l),
(316,288,l),
(48,288,l),
(48,170,l)
);
}
);
width = 364;
}
);
unicode = 45;
},
{
color = 2;
glyphname = endash;
lastChange = "2023-10-20 14:45:06 +0000";
layers = (
{
layerId = m01;
shapes = (
{
closed = 1;
nodes = (
(550,176,l),
(550,282,l),
(48,282,l),
(48,176,l)
);
}
);
width = 598;
}
);
metricLeft = hyphen;
metricRight = hyphen;
unicode = 8211;
},
{
color = 2;
glyphname = emdash;
lastChange = "2023-10-20 14:44:55 +0000";
layers = (
{
layerId = m01;
shapes = (
{
closed = 1;
nodes = (
(698,176,l),
(698,282,l),
(48,282,l),
(48,176,l)
);
}
);
width = 746;
}
);
metricLeft = hyphen;
metricRight = hyphen;
unicode = 8212;
},
{
color = 2;
glyphname = underscore;
lastChange = "2023-10-20 14:46:35 +0000";
layers = (
{
layerId = m01;
shapes = (
{
closed = 1;
nodes = (
(497,-116,l),
(497,-40,l),
(-5,-40,l),
(-5,-116,l)
);
}
);
width = 492;
}
);
unicode = 95;
},
{
color = 2;
glyphname = parenleft;
lastChange = "2023-10-20 14:56:05 +0000";
layers = (
{
layerId = m01;
shapes = (
{
closed = 1;
nodes = (
(296,-39,l),
(247,25,o),
(211,160,o),
(211,277,cs),
(211,397,o),
(247,533,o),
(294,592,c),
(128,592,l),
(95,538,o),
(72,408,o),
(72,277,cs),
(72,147,o),
(101,13,o),
(140,-39,c)
);
}
);
width = 356;
}
);
unicode = 40;
},
{
color = 2;
glyphname = braceleft;
lastChange = "2023-10-25 15:21:02 +0000";
layers = (
{
background = {
shapes = (
{
pos = (3,0);
ref = parenleft;
}
);
};
guides = (
{
locked = 1;
pos = (268,277);
}
);
layerId = m01;
shapes = (
{
closed = 1;
nodes = (
(213,277,l),
(213,309,o),
(227,335,o),
(262,369,cs),
(296,402,o),
(321,462,o),
(321,509,cs),
(321,542,o),
(334,574,o),
(354,592,c),
(209,592,l),
(198,579,o),
(193,555,o),
(193,518,cs),
(193,477,o),
(178,443,o),
(145,413,cs),
(94,366,o),
(72,325,o),
(72,277,c)
);
},
{
closed = 1;
nodes = (
(72,229,o),
(94,188,o),
(145,141,cs),
(178,111,o),
(193,77,o),
(193,36,cs),
(193,-1,o),
(198,-25,o),
(209,-38,c),
(354,-38,l),
(334,-20,o),
(321,12,o),
(321,45,cs),
(321,92,o),
(296,152,o),
(262,185,cs),
(227,219,o),
(213,245,o),
(213,277,c),
(72,277,l)
);
}
);
width = 426;
}
);
unicode = 123;
},
{
color = 2;
glyphname = bracketleft;
lastChange = "2023-10-25 15:22:51 +0000";
layers = (
{
layerId = m01;
shapes = (
{
closed = 1;
nodes = (
(194,-38,l),
(194,592,l),
(60,592,l),
(60,-38,l)
);
},
{
closed = 1;
nodes = (
(304,-38,l),
(304,82,l),
(60,82,l),
(60,-38,l)
);
},
{
closed = 1;
nodes = (
(304,472,l),
(304,592,l),
(60,592,l),
(60,472,l)
);
}
);
width = 364;
}
);
unicode = 91;
},
{
color = 2;
glyphname = quoteleft;
lastChange = "2023-10-20 15:14:30 +0000";
layers = (
{
layerId = m01;
shapes = (
{
closed = 1;
nodes = (
(203,342,l),
(203,472,l),
(163,472,l),
(163,574,l),
(75,574,l),
(43,531,o),
(24,459,o),
(24,413,cs),
(24,372,o),
(32,354,o),
(45,342,c)
);
}
);
width = 227;
}
);
unicode = 8216;
},
{
color = 2;
glyphname = guilsinglright;
lastChange = "2023-10-20 15:28:17 +0000";
layers = (
{
layerId = m01;
shapes = (
{
closed = 1;
nodes = (
(238,318,l),
(48,403,l),
(48,262,l),
(238,176,l)
);
},
{
closed = 1;
nodes = (
(238,85,l),
(238,227,l),
(48,141,l),
(48,0,l)
);
}
);
width = 286;
}
);
unicode = 8250;
},
{
color = 2;
glyphname = quotedbl;
lastChange = "2023-10-20 15:22:36 +0000";
layers = (
{
layerId = m01;
shapes = (
{
closed = 1;
nodes = (
(156,349,l),
(175,574,l),
(24,574,l),
(43,349,l)
);
},
{
closed = 1;
nodes = (
(344,349,l),
(363,574,l),
(212,574,l),
(231,349,l)
);
}
);
width = 387;
}
);
unicode = 34;
},
{
color = 2;
glyphname = quotesingle;
lastChange = "2023-10-19 19:11:56 +0000";
layers = (
{
layerId = m01;
shapes = (
{
closed = 1;
nodes = (
(152,195,l),
(184,238,o),
(203,293,o),
(203,339,cs),
(203,370,o),
(195,388,o),
(182,400,c),
(24,400,l),
(24,280,l),
(64,280,l),
(64,195,l)
);
}
);
width = 221;
}
);
unicode = 39;
},
{
color = 2;
glyphname = dieresiscomb;
lastChange = "2023-10-19 18:27:40 +0000";
layers = (
{
anchors = (
{
name = _top;
pos = (196,400);
},
{
name = top;
pos = (196,554);
}
);
layerId = m01;
shapes = (
{
closed = 1;
nodes = (
(163,424,l),
(175,437,o),
(182,456,o),
(182,490,cs),
(182,511,o),
(179,532,o),
(174,554,c),
(37,554,l),
(26,541,o),
(19,521,o),
(19,488,cs),
(19,467,o),
(21,446,o),
(27,424,c)
);
},
{
closed = 1;
nodes = (
(354,424,l),
(366,437,o),
(373,456,o),
(373,490,cs),
(373,511,o),
(370,532,o),
(365,554,c),
(228,554,l),
(217,541,o),
(210,521,o),
(210,488,cs),
(210,467,o),
(212,446,o),
(218,424,c)
);
}
);
width = 397;
}
);
metricLeft = period;
metricRight = period;
unicode = 776;
},
{
color = 2;
glyphname = dotaccentcomb;
lastChange = "2023-10-19 18:27:40 +0000";
layers = (
{
anchors = (
{
name = _top;
pos = (101,400);
},
{
name = top;
pos = (101,554);
}
);
layerId = m01;
shapes = (
{
closed = 1;
nodes = (
(163,424,l),
(175,437,o),
(182,456,o),
(182,490,cs),
(182,511,o),
(179,532,o),
(174,554,c),
(37,554,l),
(26,541,o),
(19,521,o),
(19,488,cs),
(19,467,o),
(21,446,o),
(27,424,c)
);
}
);
width = 206;
}
);
metricLeft = period;
metricRight = period;
unicode = 775;
},
{
color = 2;
glyphname = gravecomb;
lastChange = "2023-10-19 18:27:40 +0000";
layers = (
{
anchors = (
{
name = _top;
pos = (140,400);
},
{
name = top;
pos = (140,554);
}
);
layerId = m01;
shapes = (
{
closed = 1;
nodes = (
(260,432,l),
(192,554,l),
(19,554,l),
(87,432,l)
);
}
);
width = 284;
}
);
metricLeft = period;
metricRight = period;
unicode = 768;
},
{
color = 2;
glyphname = acutecomb;
lastChange = "2023-10-19 18:27:40 +0000";
layers = (
{
anchors = (
{
name = _top;
pos = (108,400);
},
{
name = top;
pos = (145,554);
}
);
layerId = m01;
shapes = (
{
closed = 1;
nodes = (
(197,432,l),
(265,554,l),
(92,554,l),
(24,432,l)
);
}
);
width = 289;
}
);
unicode = 769;
},
{
color = 2;
glyphname = hungarumlautcomb;
lastChange = "2023-10-19 18:27:40 +0000";
layers = (
{
anchors = (
{
name = _top;
pos = (206,400);
},
{
name = top;
pos = (206,554);
}
);
layerId = m01;
shapes = (
{
closed = 1;
nodes = (
(146,432,l),
(223,554,l),
(96,554,l),
(19,432,l)
);
},
{
closed = 1;
nodes = (
(315,432,l),
(392,554,l),
(265,554,l),
(188,432,l)
);
}
);
width = 416;
}
);
metricLeft = period;
metricRight = period;
unicode = 779;
},
{
color = 2;
glyphname = caroncomb.alt;
lastChange = "2023-10-19 18:27:40 +0000";
layers = (
{
anchors = (
{
name = _topright;
pos = (84,554);
}
);
layerId = m01;
shapes = (
{
closed = 1;
nodes = (
(127,348,l),
(192,554,l),
(84,554,l),
(19,348,l)
);
}
);
width = 216;
}
);
metricLeft = period;
metricRight = period;
},
{
color = 2;
glyphname = circumflexcomb;
lastChange = "2023-10-19 18:27:40 +0000";
layers = (
{
anchors = (
{
name = _top;
pos = (221,400);
},
{
name = top;
pos = (221,554);
}
);
layerId = m01;
shapes = (
{
closed = 1;
nodes = (
(422,432,l),
(337,554,l),
(195,554,l),
(281,432,l)
);
},
{
closed = 1;
nodes = (
(160,432,l),
(246,554,l),
(104,554,l),
(19,432,l)
);
}
);
width = 446;
}
);
metricLeft = period;
metricRight = period;
unicode = 770;
},
{
color = 2;
glyphname = caroncomb;
lastChange = "2023-10-19 18:27:40 +0000";
layers = (
{
anchors = (
{
name = _top;
pos = (221,400);
},
{
name = top;
pos = (221,554);
}
);
layerId = m01;
shapes = (
{
closed = 1;
nodes = (
(337,432,l),
(422,554,l),
(281,554,l),
(195,432,l)
);
},
{
closed = 1;
nodes = (
(246,432,l),
(160,554,l),
(19,554,l),
(104,432,l)
);
}
);
width = 446;
}
);
metricLeft = period;
metricRight = period;
unicode = 780;
},
{
color = 2;
glyphname = brevecomb;
lastChange = "2023-10-19 18:27:40 +0000";
layers = (
{
anchors = (
{
name = _top;
pos = (171,400);
},
{
name = top;
pos = (171,554);
}
);
layerId = m01;
shapes = (
{
closed = 1;
nodes = (
(290,432,l),
(314,465,o),
(327,520,o),
(322,554,c),
(200,554,l),
(205,517,o),
(192,470,o),
(171,432,c)
);
},
{
closed = 1;
nodes = (
(171,432,l),
(150,470,o),
(137,517,o),
(142,554,c),
(20,554,l),
(15,520,o),
(28,465,o),
(52,432,c)
);
}
);
width = 347;
}
);
metricLeft = period;
metricRight = period;
unicode = 774;
},
{
color = 2;
glyphname = ringcomb;
lastChange = "2023-10-19 18:27:40 +0000";
layers = (
{
anchors = (
{
name = _top;
pos = (139,400);
},
{
name = top;
pos = (139,554);
}
);
layerId = m01;
shapes = (
{
closed = 1;
nodes = (
(236,433,l),
(250,445,o),
(259,463,o),
(259,495,cs),
(259,514,o),
(256,534,o),
(249,554,c),
(42,554,l),
(28,542,o),
(19,524,o),
(19,493,cs),
(19,473,o),
(22,454,o),
(29,433,c)
);
},
{
closed = 1;
nodes = (
(112,463,o),
(106,477,o),
(106,494,cs),
(106,511,o),
(112,525,o),
(139,525,cs),
(166,525,o),
(172,511,o),
(172,494,cs),
(172,477,o),
(166,463,o),
(139,463,cs)
);
}
);
width = 283;
}
);
metricLeft = period;
metricRight = period;
unicode = 778;
},
{
color = 2;
glyphname = tildecomb;
lastChange = "2023-10-19 18:27:40 +0000";
layers = (
{
anchors = (
{
name = _top;
pos = (149,400);
},
{
name = top;
pos = (149,570);
}
);
layerId = m01;
shapes = (
{
closed = 1;
nodes = (
(37,447,o),
(59,464,o),
(84,464,cs),
(146,464,o),
(149,430,o),
(214,430,cs),
(237,430,o),
(263,447,o),
(279,467,c),
(279,570,l),
(261,551,o),
(239,535,o),
(214,535,cs),
(152,535,o),
(149,568,o),
(84,568,cs),
(61,568,o),
(35,551,o),
(19,531,c),
(19,428,l)
);
}
);
width = 303;
}
);
metricLeft = period;
metricRight = period;
unicode = 771;
},
{
color = 1;
glyphname = macroncomb;
lastChange = "2023-10-19 18:27:44 +0000";
layers = (
{
anchors = (
{
name = _top;
pos = (184,400);
},
{
name = top;
pos = (184,554);
}
);
layerId = m01;
shapes = (
{
closed = 1;
nodes = (
(349,444,l),
(349,554,l),
(19,554,l),
(19,444,l)
);
}
);
width = 373;
}
);
metricLeft = period;
metricRight = period;
unicode = 772;
},
{
color = 1;
glyphname = verticallineabovecomb;
lastChange = "2023-10-19 18:27:44 +0000";
layers = (
{
anchors = (
{
name = _top;
pos = (74,400);
},
{
name = top;
pos = (74,764);
}
);
layerId = m01;
shapes = (
{
closed = 1;
nodes = (
(129,434,l),
(129,764,l),
(19,764,l),
(19,434,l)
);
}
);
width = 153;
}
);
metricLeft = period;
metricRight = period;
unicode = 781;
},
{
color = 1;
glyphname = dblgravecomb;
lastChange = "2023-10-19 18:27:46 +0000";
layers = (
{
anchors = (
{
name = _top;
pos = (217,400);
},
{
name = top;
pos = (217,554);
}
);
layerId = m01;
shapes = (
{
closed = 1;
nodes = (
(226,432,l),
(168,554,l),
(19,554,l),
(78,432,l)
);
},
{
closed = 1;
nodes = (
(415,432,l),
(356,554,l),
(208,554,l),
(266,432,l)
);
}
);
width = 439;
}
);
metricLeft = period;
metricRight = period;
unicode = 783;
},
{
color = 0;
glyphname = breveinvertedcomb;
lastChange = "2023-10-19 18:27:26 +0000";
layers = (
{
anchors = (
{
name = _top;
pos = (171,400);
},
{
name = top;
pos = (171,554);
}
);
layerId = m01;
shapes = (
{
closed = 1;
nodes = (
(322,432,l),
(327,466,o),
(314,521,o),
(290,554,c),
(171,554,l),
(192,516,o),
(205,469,o),
(200,432,c)
);
},
{
closed = 1;
nodes = (
(142,432,l),
(137,469,o),
(150,516,o),
(171,554,c),
(52,554,l),
(28,521,o),
(15,466,o),
(20,432,c)
);
}
);
width = 347;
}
);
unicode = 785;
},
{
color = 2;
glyphname = commaturnedabovecomb;
lastChange = "2023-10-19 18:38:51 +0000";
layers = (
{
anchors = (
{
name = _top;
pos = (114,400);
},
{
name = top;
pos = (114,666);
}
);
layerId = m01;
shapes = (
{
closed = 1;
nodes = (
(203,451,l),
(203,581,l),
(163,581,l),
(163,666,l),
(75,666,l),
(43,623,o),
(24,568,o),
(24,522,cs),
(24,481,o),
(32,463,o),
(45,451,c)
);
}
);
width = 227;
}
);
unicode = 786;
},
{
color = 2;
glyphname = commaabovecomb;
lastChange = "2023-10-19 18:39:44 +0000";
layers = (
{
anchors = (
{
name = _top;
pos = (114,400);
},
{
name = top;
pos = (114,664);
}
);
layerId = m01;
shapes = (
{
closed = 1;
nodes = (
(152,449,l),
(184,492,o),
(203,547,o),
(203,593,cs),
(203,634,o),
(195,652,o),
(182,664,c),
(24,664,l),
(24,534,l),
(64,534,l),
(64,449,l)
);
}
);
width = 227;
}
);
unicode = 787;
},
{
color = 2;
glyphname = dotbelowcomb;
lastChange = "2023-10-19 18:33:38 +0000";
layers = (
{
anchors = (
{
name = _bottom;
pos = (111,0);
},
{
name = bottom;
pos = (111,-210);
}
);
layerId = m01;
shapes = (
{
closed = 1;
nodes = (
(182,-210,l),
(195,-197,o),
(203,-178,o),
(203,-144,cs),
(203,-123,o),
(200,-102,o),
(194,-80,c),
(40,-80,l),
(27,-93,o),
(19,-113,o),
(19,-146,cs),
(19,-167,o),
(22,-188,o),
(28,-210,c)
);
}
);
width = 227;
}
);
unicode = 803;
},
{
color = 0;
glyphname = ringbelowcomb;
lastChange = "2023-10-19 18:26:25 +0000";
layers = (
{
anchors = (
{
name = _bottom;
pos = (139,0);
},
{
name = bottom;
pos = (139,-167);
}
);
layerId = m01;
shapes = (
{
closed = 1;
nodes = (
(236,-167,l),
(250,-155,o),
(259,-137,o),
(259,-105,cs),
(259,-86,o),
(256,-66,o),
(249,-46,c),
(42,-46,l),
(28,-58,o),
(19,-76,o),
(19,-107,cs),
(19,-127,o),
(22,-146,o),
(29,-167,c)
);
},
{
closed = 1;
nodes = (
(112,-137,o),
(106,-123,o),
(106,-106,cs),
(106,-89,o),
(112,-75,o),
(139,-75,cs),
(166,-75,o),
(172,-89,o),
(172,-106,cs),
(172,-123,o),
(166,-137,o),
(139,-137,cs)
);
}
);
width = 283;
}
);
metricLeft = period;
metricRight = period;
unicode = 805;
},
{
color = 2;
glyphname = commaaccentcomb;
lastChange = "2023-10-19 18:40:01 +0000";
layers = (
{
anchors = (
{
name = _bottom;
pos = (114,0);
},
{
name = bottom;
pos = (114,-249);
}
);
layerId = m01;
shapes = (
{
closed = 1;
nodes = (
(152,-249,l),
(184,-206,o),
(203,-151,o),
(203,-105,cs),
(203,-64,o),
(195,-46,o),
(182,-34,c),
(24,-34,l),
(24,-164,l),
(64,-164,l),
(64,-249,l)
);
}
);
width = 227;
}
);
unicode = 806;
},
{
color = 2;
glyphname = cedillacomb;
lastChange = "2023-10-19 19:05:00 +0000";
layers = (
{
anchors = (
{
name = _bottom;
pos = (182,0);
},
{
name = bottom;
pos = (182,-169);
}
);
layerId = m01;
shapes = (
{
closed = 1;
nodes = (
(226,-169,l),
(278,-133,o),
(296,-56,o),
(263,0,c),
(128,0,l),
(161,-61,o),
(140,-126,o),
(84,-169,c)
);
}
);
width = 347;
}
);
unicode = 807;
},
{
color = 0;
glyphname = ogonekcomb;
lastChange = "2023-10-19 19:03:37 +0000";
layers = (
{
anchors = (
{
name = _ogonek;
pos = (236,0);
}
);
layerId = m01;
shapes = (
{
closed = 1;
nodes = (
(280,-169,l),
(224,-126,o),
(203,-61,o),
(236,0,c),
(101,0,l),
(68,-56,o),
(86,-133,o),
(138,-169,c)
);
}
);
width = 347;
}
);
unicode = 808;
},
{
color = 2;
glyphname = circumflexbelowcomb;
lastChange = "2023-10-19 18:35:09 +0000";
layers = (
{
anchors = (
{
name = _bottom;
pos = (221,0);
},
{
name = bottom;
pos = (221,-158);
}
);
layerId = m01;
shapes = (
{
closed = 1;
nodes = (
(422,-158,l),
(337,-36,l),
(195,-36,l),
(281,-158,l)
);
},
{
closed = 1;
nodes = (
(160,-158,l),
(246,-36,l),
(104,-36,l),
(19,-158,l)
);
}
);
width = 446;
}
);
unicode = 813;
},
{
color = 0;
glyphname = acute;
lastChange = "2023-10-19 18:26:25 +0000";
layers = (
{
layerId = m01;
shapes = (
{
closed = 1;
nodes = (
(380,380,l),
(454,554,l),
(281,554,l),
(207,380,l)
);
}
);
width = 600;
}
);
unicode = 180;
},
{
color = 0;
glyphname = circumflex;
lastChange = "2023-10-19 18:26:25 +0000";
layers = (
{
anchors = (
{
name = _top;
pos = (342,400);
}
);
layerId = m01;
shapes = (
{
closed = 1;
nodes = (
(316,432,l),
(384,554,l),
(251,554,l),
(183,432,l)
);
},
{
closed = 1;
nodes = (
(499,432,l),
(431,554,l),
(299,554,l),
(367,432,l)
);
}
);
width = 683;
}
);
unicode = 710;
},
{
color = 9;
export = 0;
glyphname = _part.aleftbowl;
lastChange = "2023-10-19 19:12:11 +0000";
layers = (
{
anchors = (
{
name = _connector;
pos = (294,0);
}
);
layerId = m01;
shapes = (
{
closed = 1;
nodes = (
(294,0,l),
(294,0,o),
(197,40,o),
(197,130,cs),
(197,220,o),
(270,280,o),
(270,280,c),
(68,280,l),
(68,280,o),
(24,210,o),
(24,130,cs),
(24,50,o),
(80,0,o),
(80,0,c)
);
}
);
width = 458;
}
);
},
{
color = 9;
export = 0;
glyphname = _part.angledstem;
lastChange = "2023-10-19 19:12:11 +0000";
layers = (
{
anchors = (
{
name = leg;
pos = (217,0);
}
);
layerId = m01;
shapes = (
{
closed = 1;
nodes = (
(243,0,l),
(210,400,l),
(37,400,l),
(70,0,l)
);
}
);
width = 488;
}
);
},
{
color = 9;
export = 0;
glyphname = _part.crossbar;
lastChange = "2023-10-19 19:12:11 +0000";
layers = (
{
anchors = (
{
name = _connector;
pos = (28,400);
},
{
name = _crossbar;
pos = (180,400);
}
);
layerId = m01;
shapes = (
{
closed = 1;
nodes = (
(331,280,l),
(331,400,l),
(28,400,l),
(28,280,l)
);
}
);
width = 359;
}
);
},
{
color = 9;
export = 0;
glyphname = _part.curvedstem;
lastChange = "2023-10-19 19:12:11 +0000";
layers = (
{
layerId = m01;
shapes = (
{
closed = 1;
nodes = (
(271,0,l),
(255,24,o),
(201,108,o),
(201,208,c),
(201,554,l),
(28,554,l),
(29,147,ls),
(29,91,o),
(48,25,o),
(64,0,c)
);
}
);
width = 281;
}
);
},
{
color = 9;
export = 0;
glyphname = _part.descendedstem;
lastChange = "2023-10-19 19:12:11 +0000";
layers = (
{
anchors = (
{
name = bowl;
pos = (292,0);
},
{
name = jot;
pos = (353,400);
}
);
layerId = m01;
shapes = (
{
closed = 1;
nodes = (
(403,-154,l),
(419,-129,o),
(439,-63,o),
(439,-7,c),
(439,400,l),
(266,400,l),
(266,54,l),
(266,-46,o),
(212,-130,o),
(196,-154,c)
);
}
);
width = 468;
}
);
},
{
color = 9;
export = 0;
glyphname = _part.farleg;
lastChange = "2023-10-19 19:12:11 +0000";
layers = (
{
anchors = (
{
name = _leg;
pos = (10,400);
}
);
layerId = m01;
shapes = (
{
closed = 1;
nodes = (
(306,0,l),
(306,200,l),
(306,340,o),
(235,400,o),
(235,400,c),
(10,400,l),
(10,400,o),
(133,330,o),
(133,200,cs),
(133,70,o),
(133,0,o),
(133,0,c)
);
}
);
width = 306;
}
);
},
{
color = 9;
export = 0;
glyphname = _part.fstem;
lastChange = "2023-10-19 19:12:11 +0000";
layers = (
{
anchors = (
{
name = connector;
pos = (30,400);
}
);
layerId = m01;
shapes = (
{
closed = 1;
nodes = (
(203,0,l),
(203,400,l),
(203,400,o),
(203,560,o),
(333,630,c),
(160,630,l),
(30,560,o),
(30,450,o),
(30,400,c),
(30,0,l)
);
}
);
width = 363;
}
);
},
{
color = 9;
export = 0;
glyphname = _part.kleg;
lastChange = "2023-10-19 19:12:11 +0000";
layers = (
{
anchors = (
{
name = _kleg;
pos = (178,280);
}
);
background = {
shapes = (
{
closed = 1;
nodes = (
(450,0,l),
(450,140,ls),
(450,238,o),
(371,280,o),
(371,280,cs),
(178,280,l),
(178,280,o),
(277,231,o),
(277,140,cs),
(277,0,l)
);
},
{
closed = 1;
nodes = (
(371,280,l),
(435,400,l),
(262,400,l),
(198,280,l)
);
}
);
};
layerId = m01;
shapes = (
{
closed = 1;
nodes = (
(450,0,l),
(450,140,ls),
(450,209,o),
(408,261,o),
(371,280,c),
(178,280,l),
(228,253,o),
(277,203,o),
(277,140,cs),
(277,0,l)
);
},
{
closed = 1;
nodes = (
(371,280,l),
(435,400,l),
(262,400,l),
(198,280,l)
);
}
);
width = 475;
}
);
},
{
color = 9;
export = 0;
glyphname = _part.lefthalfo;
lastChange = "2023-10-19 19:12:11 +0000";
layers = (
{
anchors = (
{
name = oconnect;
pos = (228,0);
}
);
background = {
shapes = (
{
closed = 1;
nodes = (
(264,0,o),
(195,70,o),
(195,200,cs),
(195,330,o),
(264,400,o),
(264,400,c),
(196,400,o),
(128,400,o),
(60,400,c),
(60,400,o),
(22,340,o),
(22,200,cs),
(22,60,o),
(60,0,o),
(60,0,c),
(264,0,l)
);
}
);
};
layerId = m01;
shapes = (
{
closed = 1;
nodes = (
(264,0,l),
(220,51,o),
(195,124,o),
(195,200,cs),
(195,276,o),
(221,352,o),
(264,400,c),
(60,400,l),
(36,356,o),
(22,283,o),
(22,200,cs),
(22,118,o),
(36,42,o),
(60,0,c)
);
}
);
width = 490;
}
);
},
{
color = 9;
export = 0;
glyphname = _part.leg;
lastChange = "2023-10-19 19:12:11 +0000";
layers = (
{
anchors = (
{
name = _bowl;
pos = (178,400);
},
{
name = _leg;
pos = (172,400);
}
);
background = {
shapes = (
{
closed = 1;
nodes = (
(450,0,l),
(450,200,l),
(450,340,o),
(392,400,o),
(392,400,c),
(178,400,l),
(178,400,o),
(277,330,o),
(277,200,cs),
(277,70,o),
(277,0,o),
(277,0,c)
);
}
);
};
layerId = m01;
shapes = (
{
closed = 1;
nodes = (
(450,0,l),
(450,200,ls),
(450,282,o),
(428,358,o),
(392,400,c),
(178,400,l),
(238,355,o),
(277,277,o),
(277,200,cs),
(277,0,l)
);
}
);
width = 478;
}
);
},
{
color = 9;
export = 0;
glyphname = _part.longstem;
lastChange = "2023-10-19 19:12:11 +0000";
layers = (
{
anchors = (
{
name = bowl;
pos = (168,0);
},
{
name = kleg;
pos = (172,280);
},
{
name = leg;
pos = (170,400);
}
);
layerId = m01;
shapes = (
{
closed = 1;
nodes = (
(197,0,l),
(197,554,l),
(24,554,l),
(24,0,l)
);
}
);
width = 464;
}
);
},
{
color = 9;
export = 0;
glyphname = _part.middleleg;
lastChange = "2023-10-19 19:12:11 +0000";
layers = (
{
anchors = (
{
name = _leg;
pos = (190,400);
},
{
name = leg;
pos = (383,400);
}
);
layerId = m01;
shapes = (
{
closed = 1;
nodes = (
(448,0,l),
(448,200,l),
(448,340,o),
(401,400,o),
(401,400,c),
(190,400,l),
(190,400,o),
(275,330,o),
(275,200,cs),
(275,70,o),
(275,0,o),
(275,0,c)
);
}
);
width = 672;
}
);
},
{
color = 9;
export = 0;
glyphname = _part.normalleftbowl;
lastChange = "2023-10-19 19:12:11 +0000";
layers = (
{
anchors = (
{
name = _bowl;
pos = (298,0);
}
);
layerId = m01;
shapes = (
{
closed = 1;
nodes = (
(298,0,l),
(298,0,o),
(199,70,o),
(199,200,cs),
(199,330,o),
(298,400,o),
(298,400,c),
(84,400,l),
(84,400,o),
(26,340,o),
(26,200,cs),
(26,60,o),
(84,0,o),
(84,0,c)
);
}
);
width = 298;
}
);
},
{
color = 9;
export = 0;
glyphname = _part.normalrightbowl;
lastChange = "2023-10-19 19:12:11 +0000";
layers = (
{
anchors = (
{
name = _bowl;
}
);
layerId = m01;
shapes = (
{
closed = 1;
nodes = (
(214,0,l),
(214,0,o),
(272,60,o),
(272,200,cs),
(272,340,o),
(214,400,o),
(214,400,c),
(0,400,l),
(0,400,o),
(99,330,o),
(99,200,cs),
(99,70,o),
(0,0,o),
(0,0,c)
);
}
);
width = 298;
}
);
},
{
color = 9;
export = 0;
glyphname = _part.rightthalfo;
lastChange = "2023-10-19 19:12:11 +0000";
layers = (
{
anchors = (
{
name = _oconnect;
pos = (234,0);
}
);
background = {
shapes = (
{
closed = 1;
nodes = (
(438,0,l),
(438,0,o),
(476,60,o),
(476,200,cs),
(476,340,o),
(438,400,o),
(438,400,c),
(234,400,l),
(234,400,o),
(303,330,o),
(303,200,cs),
(303,70,o),
(234,0,o),
(234,0,c)
);
}
);
};
layerId = m01;
shapes = (
{
closed = 1;
nodes = (
(438,0,l),
(462,46,o),
(476,119,o),
(476,200,cs),
(476,282,o),
(461,359,o),
(438,400,c),
(234,400,l),
(269,359,o),
(303,291,o),
(303,200,cs),
(303,105,o),
(262,29,o),
(234,0,c)
);
}
);
width = 498;
}
);
},
{
color = 9;
export = 0;
glyphname = _part.s;
lastChange = "2023-10-19 19:12:11 +0000";
layers = (
{
layerId = m01;
shapes = (
{
closed = 1;
nodes = (
(221,0,l),
(221,0,o),
(261,50,o),
(261,120,cs),
(261,197,o),
(208,233,o),
(212,300,cs),
(214,338,o),
(252,400,o),
(252,400,c),
(60,400,l),
(60,400,o),
(20,350,o),
(20,280,cs),
(20,203,o),
(73,167,o),
(69,100,cs),
(67,62,o),
(29,0,o),
(29,0,c)
);
}
);
width = 282;
}
);
},
{
color = 9;
export = 0;
glyphname = _part.shortcurvedstem;
lastChange = "2023-10-19 19:12:11 +0000";
layers = (
{
anchors = (
{
name = connector;
pos = (294,0);
}
);
layerId = m01;
shapes = (
{
closed = 1;
nodes = (
(430,0,l),
(430,253,l),
(430,309,o),
(410,375,o),
(394,400,c),
(187,400,l),
(203,376,o),
(257,292,o),
(257,192,c),
(257,0,l)
);
}
);
width = 458;
}
);
},
{
color = 9;
export = 0;
glyphname = _part.shortstem;
lastChange = "2023-10-19 19:12:11 +0000";
layers = (
{
anchors = (
{
name = jot;
pos = (114,400);
},
{
name = leg;
pos = (174,400);
}
);
layerId = m01;
shapes = (
{
closed = 1;
nodes = (
(201,0,l),
(201,400,l),
(28,400,l),
(28,0,l)
);
}
);
width = 229;
}
);
},
{
color = 9;
export = 0;
glyphname = _part.tittle;
lastChange = "2023-10-19 19:12:11 +0000";
layers = (
{
anchors = (
{
name = _jot;
pos = (116,400);
}
);
layerId = m01;
shapes = (
{
closed = 1;
nodes = (
(203,434,l),
(203,500,l),
(30,500,l),
(30,434,l)
);
}
);
width = 233;
}
);
},
{
color = 9;
export = 0;
glyphname = _part.tstem;
lastChange = "2023-10-19 19:12:11 +0000";
layers = (
{
anchors = (
{
name = crossbar;
pos = (117,400);
}
);
layerId = m01;
shapes = (
{
closed = 1;
nodes = (
(273,0,l),
(246,40,o),
(203,120,o),
(203,270,cs),
(203,500,l),
(30,500,l),
(30,200,ls),
(30,140,o),
(40,40,o),
(66,0,c)
);
}
);
width = 283;
}
);
},
{
color = 9;
export = 0;
glyphname = _part.xleg;
lastChange = "2023-10-19 19:12:11 +0000";
layers = (
{
anchors = (
{
name = _xleg;
pos = (254,280);
},
{
name = xleg;
pos = (263,280);
}
);
layerId = m01;
shapes = (
{
closed = 1;
nodes = (
(203,0,l),
(203,0,o),
(203,49,o),
(203,140,cs),
(203,231,o),
(283,280,o),
(283,280,c),
(90,280,ls),
(90,280,o),
(30,238,o),
(30,140,c),
(30,0,l)
);
},
{
closed = 1;
nodes = (
(263,280,l),
(213,400,l),
(40,400,l),
(90,280,l)
);
}
);
width = 313;
}
);
},
{
color = 9;
export = 0;
glyphname = _part.z;
lastChange = "2023-10-19 19:12:11 +0000";
layers = (
{
layerId = m01;
shapes = (
{
closed = 1;
nodes = (
(262,0,ls),
(262,0,o),
(212,66,o),
(212,100,cs),
(212,150,o),
(262,230,o),
(262,280,cs),
(262,314,o),
(222,400,o),
(222,400,cs),
(30,400,ls),
(30,400,o),
(70,334,o),
(70,300,cs),
(70,250,o),
(20,170,o),
(20,120,cs),
(20,86,o),
(60,0,o),
(60,0,cs)
);
}
